<?xml version="1.0" encoding="UTF-8"?>
<!-- Standalone light-theme export. Generated from the theme-aware version in script.js — keep in sync. -->
<svg xmlns="http://www.w3.org/2000/svg" viewBox="0 0 960 592" role="img" aria-label="The handbook's three levels: system overview, component overview, unit deep dive">
<style>text{font-family:Inter,"Source Sans 3",system-ui,sans-serif}</style>
  <!-- L1 page -->
  <rect x="200" y="24" width="710" height="144" rx="10" fill="#fdfcfa" stroke="#e6e2d8"></rect>
  <text x="220" y="51" font-size="11" font-weight="650" fill="#1c5cab" letter-spacing=".11em">L1 · SYSTEM OVERVIEW</text>
  <text x="222" y="82" font-size="13.5" fill="#4a463f">A five-stage execution loop moves each turn from user input to a finished action.</text>
  
        <rect x="222" y="116" width="106" height="30" rx="7" fill="none" stroke="#e6e2d8" stroke-width="1"></rect>
        <text x="275" y="135.5" font-size="12.5" font-weight="500" fill="#6f6a61" text-anchor="middle">input</text>
        <text x="335" y="135" font-size="11" fill="#8d887e" text-anchor="middle">→</text>
        <rect x="342" y="116" width="106" height="30" rx="7" fill="none" stroke="#e6e2d8" stroke-width="1"></rect>
        <text x="395" y="135.5" font-size="12.5" font-weight="500" fill="#6f6a61" text-anchor="middle">plan</text>
        <text x="455" y="135" font-size="11" fill="#8d887e" text-anchor="middle">→</text>
        <rect x="462" y="116" width="106" height="30" rx="7" fill="#eaf1fb" stroke="color-mix(in srgb, #2a78d6 55%, #e6e2d8)" stroke-width="1.4"></rect>
        <text x="515" y="135.5" font-size="12.5" font-weight="650" fill="#1c5cab" text-anchor="middle">act</text>
        <text x="575" y="135" font-size="11" fill="#8d887e" text-anchor="middle">→</text>
        <rect x="582" y="116" width="106" height="30" rx="7" fill="none" stroke="#e6e2d8" stroke-width="1"></rect>
        <text x="635" y="135.5" font-size="12.5" font-weight="500" fill="#6f6a61" text-anchor="middle">observe</text>
        <text x="695" y="135" font-size="11" fill="#8d887e" text-anchor="middle">→</text>
        <rect x="702" y="116" width="106" height="30" rx="7" fill="none" stroke="#e6e2d8" stroke-width="1"></rect>
        <text x="755" y="135.5" font-size="12.5" font-weight="500" fill="#6f6a61" text-anchor="middle">finalize</text>
        
  <text x="178" y="82" font-size="13.5" font-weight="600" fill="#201d18" text-anchor="end">What does the whole</text><text x="178" y="101" font-size="12.5" fill="#6f6a61" text-anchor="end">system do?</text>

  
      <polygon points="462,146 568,146 890,224 260,224" fill="#2a78d6" opacity="0.055"></polygon>
      <path d="M462 146 L260 224" stroke="#2a78d6" stroke-width="1" opacity="0.4"></path>
      <path d="M568 146 L890 224" stroke="#2a78d6" stroke-width="1" opacity="0.4"></path>

  <!-- L2 page -->
  <rect x="260" y="224" width="650" height="184" rx="10" fill="#fdfcfa" stroke="#e6e2d8"></rect>
  <text x="280" y="251" font-size="11" font-weight="650" fill="#1c5cab" letter-spacing=".11em">L2 · COMPONENT OVERVIEW</text>
  <text x="282" y="282" font-size="13.5" fill="#4a463f">Inside the act stage — components, responsibilities, inputs and outputs, key states.</text>
  
        <rect x="276" y="299" width="614" height="29" rx="6" fill="#eaf1fb"></rect>
        <text x="292" y="320" font-size="13" font-weight="600" fill="#1c5cab">Tool invocation</text>
        <text x="448" y="320" font-size="12.5" fill="#6f6a61">validates, dispatches, wraps every tool call</text>
        
        <text x="292" y="354" font-size="13" font-weight="600" fill="#4a463f">Sandbox execution</text>
        <text x="448" y="354" font-size="12.5" fill="#6f6a61">isolates side effects</text>
        
        <text x="292" y="388" font-size="13" font-weight="600" fill="#4a463f">Result routing</text>
        <text x="448" y="388" font-size="12.5" fill="#6f6a61">forwards output to state &amp; telemetry</text>
  <text x="238" y="282" font-size="13.5" font-weight="600" fill="#201d18" text-anchor="end">Which parts are</text><text x="238" y="301" font-size="12.5" fill="#6f6a61" text-anchor="end">involved?</text>

  
      <polygon points="276,408 890,408 870,430 320,430" fill="#2a78d6" opacity="0.055"></polygon>
      <path d="M276 408 L320 430" stroke="#2a78d6" stroke-width="1" opacity="0.4"></path>
      <path d="M890 408 L870 430" stroke="#2a78d6" stroke-width="1" opacity="0.4"></path>

  <!-- L3 page -->
  <rect x="320" y="430" width="590" height="138" rx="10" fill="#fdfcfa" stroke="#e6e2d8"></rect>
  <text x="340" y="457" font-size="11" font-weight="650" fill="#1c5cab" letter-spacing=".11em">L3 · UNIT DEEP DIVE</text>
  <text x="342" y="488" font-size="14.5" font-weight="650" fill="#201d18">Destructive-call confirmation</text>
  <text x="342" y="510" font-size="12.5" fill="#6f6a61">Trigger, state transitions, exception paths — with anchors into the source.</text>
  <rect x="342" y="526" width="124" height="24" rx="6" fill="none" stroke="#e6e2d8"></rect><text x="404" y="542" font-size="10.8" fill="#1c5cab" text-anchor="middle" font-family="'IBM Plex Mono', ui-monospace, monospace">wrapper.py · L84</text><rect x="478" y="526" width="124" height="24" rx="6" fill="none" stroke="#e6e2d8"></rect><text x="540" y="542" font-size="10.8" fill="#1c5cab" text-anchor="middle" font-family="'IBM Plex Mono', ui-monospace, monospace">manager.py · L40</text><rect x="614" y="526" width="124" height="24" rx="6" fill="none" stroke="#e6e2d8"></rect><text x="676" y="542" font-size="10.8" fill="#1c5cab" text-anchor="middle" font-family="'IBM Plex Mono', ui-monospace, monospace">system.md</text><rect x="750" y="526" width="124" height="24" rx="6" fill="none" stroke="#e6e2d8"></rect><text x="812" y="542" font-size="10.8" fill="#1c5cab" text-anchor="middle" font-family="'IBM Plex Mono', ui-monospace, monospace">flags.py · L12</text>
  <text x="298" y="488" font-size="13.5" font-weight="600" fill="#201d18" text-anchor="end">Where exactly is</text><text x="298" y="507" font-size="12.5" fill="#6f6a61" text-anchor="end">the code?</text>
</svg>
