<?xml version="1.0" encoding="utf-8"?>
<!-- Generator: Adobe Illustrator 22.0.1, SVG Export Plug-In . SVG Version: 6.00 Build 0)  -->
<svg version="1.1" id="Layer_1" xmlns="http://www.w3.org/2000/svg" xmlns:xlink="http://www.w3.org/1999/xlink" x="0px" y="0px"
	 width="250.1px" height="250.1px" viewBox="0 0 250.1 250.1" enable-background="new 0 0 250.1 250.1" xml:space="preserve">
<ellipse transform="matrix(0.7071 -0.7071 0.7071 0.7071 -51.8017 125.0794)" fill="#FFFFFF" cx="125.08" cy="125.07" rx="122.98" ry="122.98"/>
<path d="M125.05,0.05c-69.03,0-125,55.97-125,125c0,69.03,55.97,125,125,125c69.03,0,125-55.97,125-125
	C250.05,56.02,194.08,0.05,125.05,0.05z M248.02,125.66c-0.01,0.5-0.41,0.89-0.9,0.89c-0.49-0.01-0.88-0.41-0.88-0.9l-0.1-5.39
	c-0.01-0.49,0.37-0.91,0.85-0.92c0.49-0.03,0.91,0.36,0.92,0.84L248.02,125.66z M246.95,118.47c-0.49,0.03-0.91-0.34-0.94-0.83
	c-0.03-0.49,0.34-0.91,0.83-0.94c0.49-0.03,0.91,0.34,0.94,0.83C247.81,118.02,247.44,118.44,246.95,118.47z M247.03,109.51
	l0.57,5.43c0.05,0.5-0.33,0.92-0.81,0.96c-0.49,0.04-0.92-0.32-0.95-0.81l-0.56-5.36c-0.06-0.49,0.29-0.93,0.77-1
	C246.52,108.67,246.97,109.02,247.03,109.51z M246.67,106.86c0.07,0.49-0.27,0.94-0.75,1.01c-0.49,0.07-0.93-0.26-1.01-0.74
	c-0.08-0.49,0.26-0.95,0.75-1.01C246.14,106.04,246.59,106.38,246.67,106.86z M245.21,98.93l1.05,5.37
	c0.08,0.48-0.24,0.94-0.72,1.02c-0.49,0.08-0.95-0.25-1.03-0.72l-1.03-5.29c-0.1-0.48,0.2-0.96,0.68-1.06
	C244.64,98.15,245.1,98.46,245.21,98.93z M243.66,125.05c0,65.5-53.11,118.61-118.61,118.61c-65.5,0-118.61-53.11-118.61-118.61
	c0-65.5,53.11-118.6,118.61-118.6C190.55,6.45,243.66,59.54,243.66,125.05z M244.61,96.33c0.12,0.47-0.17,0.95-0.66,1.07
	c-0.48,0.11-0.95-0.18-1.06-0.65c-0.12-0.48,0.17-0.96,0.65-1.07C244.02,95.56,244.5,95.85,244.61,96.33z M242.48,88.56l1.51,5.26
	c0.12,0.47-0.16,0.95-0.64,1.08c-0.47,0.13-0.96-0.15-1.08-0.63l-1.48-5.18c-0.15-0.47,0.11-0.97,0.58-1.11
	C241.84,87.83,242.33,88.08,242.48,88.56z M241.65,86.02c0.16,0.46-0.09,0.96-0.55,1.11c-0.47,0.16-0.97-0.09-1.13-0.56
	c-0.15-0.46,0.1-0.97,0.56-1.12C241,85.3,241.5,85.55,241.65,86.02z M238.86,78.47l1.95,5.1c0.16,0.46-0.08,0.97-0.54,1.14
	c-0.47,0.17-0.97-0.08-1.14-0.54l-1.93-5.03c-0.18-0.45,0.04-0.97,0.49-1.16C238.15,77.79,238.67,78.01,238.86,78.47z M237.82,76
	c0.2,0.44-0.02,0.97-0.46,1.16c-0.45,0.2-0.97-0.01-1.17-0.46c-0.2-0.45,0.01-0.97,0.46-1.17C237.09,75.35,237.61,75.55,237.82,76z
	 M234.35,68.72l2.4,4.92c0.2,0.44,0.01,0.97-0.44,1.18c-0.44,0.21-0.97,0.01-1.18-0.43l-2.36-4.85c-0.22-0.43-0.05-0.96,0.38-1.19
	C233.59,68.11,234.14,68.28,234.35,68.72z M233.11,66.36c0.24,0.43,0.08,0.97-0.35,1.2c-0.43,0.24-0.98,0.08-1.2-0.35
	c-0.23-0.43-0.07-0.97,0.36-1.2C232.34,65.77,232.88,65.92,233.11,66.36z M229.04,59.41l2.81,4.69c0.24,0.42,0.09,0.97-0.33,1.21
	c-0.43,0.24-0.97,0.1-1.21-0.33l-2.78-4.62c-0.25-0.42-0.14-0.96,0.28-1.23C228.22,58.87,228.77,58.99,229.04,59.41z M227.58,57.17
	c0.27,0.41,0.16,0.95-0.26,1.23c-0.41,0.27-0.95,0.16-1.22-0.25c-0.28-0.4-0.16-0.96,0.24-1.23
	C226.76,56.65,227.31,56.76,227.58,57.17z M221.68,50.43c0.39-0.3,0.94-0.22,1.24,0.17l3.22,4.42c0.27,0.41,0.17,0.97-0.23,1.24
	c-0.4,0.28-0.97,0.19-1.24-0.22l-3.17-4.37C221.21,51.28,221.28,50.72,221.68,50.43z M220.03,48.35c0.38-0.31,0.95-0.25,1.25,0.14
	c0.3,0.39,0.24,0.94-0.14,1.25c-0.39,0.3-0.95,0.24-1.25-0.15C219.58,49.21,219.65,48.65,220.03,48.35z M214.8,42.29
	c0.36-0.33,0.93-0.3,1.25,0.06l3.59,4.12c0.3,0.38,0.26,0.94-0.12,1.26c-0.38,0.31-0.94,0.26-1.25-0.12l-3.54-4.07
	C214.41,43.18,214.44,42.62,214.8,42.29z M212.98,40.35c0.36-0.33,0.92-0.32,1.26,0.04c0.34,0.35,0.32,0.91-0.04,1.25
	c-0.35,0.34-0.91,0.33-1.25-0.03C212.61,41.26,212.63,40.69,212.98,40.35z M207.25,34.78c0.33-0.36,0.9-0.38,1.25-0.05l3.93,3.8
	c0.35,0.35,0.35,0.91-0.01,1.26c-0.34,0.34-0.91,0.34-1.26-0.01l-3.87-3.74C206.93,35.7,206.91,35.14,207.25,34.78z M205.27,33.02
	c0.33-0.37,0.89-0.4,1.25-0.08c0.36,0.33,0.41,0.88,0.08,1.26c-0.33,0.37-0.9,0.4-1.26,0.08C204.98,33.95,204.95,33.38,205.27,33.02
	z M199.06,27.96c0.3-0.39,0.86-0.46,1.25-0.16l4.26,3.44c0.37,0.32,0.41,0.88,0.1,1.25c-0.31,0.38-0.88,0.43-1.25,0.11l-4.19-3.39
	C198.84,28.9,198.76,28.35,199.06,27.96z M196.95,26.37c0.29-0.4,0.84-0.48,1.24-0.18c0.39,0.29,0.47,0.85,0.18,1.24
	c-0.29,0.4-0.85,0.48-1.24,0.19C196.73,27.32,196.65,26.76,196.95,26.37z M190.33,21.87c0.26-0.41,0.81-0.53,1.22-0.26l4.53,3.06
	c0.41,0.28,0.5,0.83,0.22,1.23c-0.28,0.4-0.84,0.49-1.24,0.21l-4.47-3.01C190.18,22.84,190.06,22.29,190.33,21.87z M188.08,20.48
	c0.24-0.42,0.8-0.55,1.22-0.29c0.41,0.26,0.54,0.8,0.29,1.22c-0.26,0.42-0.81,0.56-1.22,0.3C187.94,21.45,187.81,20.9,188.08,20.48z
	 M181.08,16.58c0.23-0.43,0.76-0.6,1.2-0.37l4.78,2.65c0.42,0.24,0.57,0.79,0.32,1.22c-0.25,0.42-0.79,0.56-1.21,0.31l-4.71-2.62
	C181.02,17.55,180.86,17.01,181.08,16.58z M178.72,15.38c0.22-0.44,0.75-0.61,1.19-0.4c0.43,0.22,0.62,0.75,0.4,1.19
	c-0.22,0.44-0.76,0.61-1.19,0.4C178.67,16.36,178.5,15.83,178.72,15.38z M171.42,12.1c0.18-0.45,0.71-0.66,1.16-0.47l5,2.23
	c0.44,0.21,0.63,0.74,0.42,1.18c-0.2,0.44-0.74,0.63-1.17,0.42l-4.93-2.19C171.43,13.08,171.23,12.56,171.42,12.1z M168.95,11.12
	c0.18-0.46,0.7-0.68,1.15-0.5c0.45,0.18,0.68,0.69,0.5,1.15c-0.18,0.46-0.7,0.68-1.15,0.5C169,12.1,168.77,11.58,168.95,11.12z
	 M161.39,8.49c0.15-0.46,0.65-0.72,1.12-0.58l5.16,1.78c0.46,0.17,0.7,0.68,0.53,1.14c-0.18,0.46-0.69,0.69-1.14,0.53l-5.09-1.76
	C161.5,9.46,161.25,8.96,161.39,8.49z M158.86,7.74c0.14-0.47,0.63-0.74,1.1-0.6c0.47,0.14,0.75,0.63,0.6,1.1
	c-0.14,0.47-0.64,0.74-1.11,0.6C158.99,8.7,158.73,8.21,158.86,7.74z M151.1,5.77c0.11-0.47,0.58-0.78,1.06-0.67l5.3,1.32
	c0.47,0.13,0.75,0.62,0.63,1.09c-0.13,0.47-0.62,0.75-1.1,0.63l-5.23-1.3C151.29,6.72,150.99,6.25,151.1,5.77z M148.5,5.23
	c0.1-0.48,0.56-0.79,1.05-0.69c0.48,0.1,0.79,0.56,0.68,1.04c-0.08,0.48-0.56,0.79-1.04,0.7C148.72,6.18,148.41,5.71,148.5,5.23z
	 M140.6,3.95c0.06-0.49,0.52-0.83,1-0.76l5.4,0.85c0.48,0.1,0.8,0.55,0.71,1.03c-0.09,0.49-0.55,0.81-1.04,0.72l-5.32-0.84
	C140.88,4.88,140.54,4.44,140.6,3.95z M137.97,3.64c0.05-0.49,0.49-0.82,0.98-0.77c0.49,0.05,0.84,0.49,0.79,0.98
	c-0.05,0.49-0.49,0.84-0.98,0.78C138.27,4.57,137.92,4.13,137.97,3.64z M130.92,2.21l5.45,0.38c0.49,0.05,0.85,0.48,0.81,0.96
	c-0.05,0.49-0.49,0.85-0.97,0.81l-5.37-0.38c-0.49-0.02-0.87-0.44-0.85-0.93C130.02,2.57,130.43,2.19,130.92,2.21z M128.26,2.17
	c0.49,0.02,0.89,0.42,0.87,0.91c-0.01,0.49-0.42,0.87-0.91,0.87c-0.49-0.02-0.88-0.43-0.85-0.92
	C127.37,2.54,127.77,2.15,128.26,2.17z M120.21,2.22l5.47-0.1c0.49,0.01,0.88,0.4,0.88,0.9c-0.01,0.49-0.4,0.89-0.9,0.88l-5.37,0.09
	c-0.49,0.02-0.91-0.36-0.93-0.85C119.34,2.65,119.72,2.24,120.21,2.22z M117.55,2.35c0.49-0.03,0.91,0.34,0.94,0.84
	c0.03,0.49-0.35,0.91-0.84,0.94s-0.91-0.34-0.94-0.82C116.68,2.81,117.06,2.38,117.55,2.35z M109.52,3.11l5.44-0.57
	c0.49-0.04,0.92,0.33,0.96,0.81c0.04,0.49-0.33,0.91-0.81,0.96l-5.36,0.56c-0.48,0.05-0.93-0.28-0.98-0.77
	C108.7,3.61,109.03,3.17,109.52,3.11z M106.88,3.47c0.48-0.07,0.93,0.27,1.01,0.75c0.08,0.49-0.27,0.93-0.75,1.01
	c-0.48,0.08-0.93-0.26-1.01-0.75C106.06,4,106.4,3.54,106.88,3.47z M98.95,4.93l5.37-1.04c0.47-0.08,0.94,0.24,1.02,0.72
	c0.08,0.48-0.24,0.94-0.72,1.03l-5.3,1.03c-0.47,0.1-0.95-0.21-1.05-0.68C98.18,5.5,98.48,5.03,98.95,4.93z M96.36,5.52
	c0.47-0.12,0.95,0.17,1.07,0.65c0.12,0.47-0.18,0.96-0.66,1.07c-0.48,0.12-0.96-0.18-1.07-0.66C95.58,6.12,95.87,5.63,96.36,5.52z
	 M88.58,7.65l5.26-1.5c0.47-0.13,0.95,0.16,1.08,0.63c0.12,0.48-0.16,0.97-0.63,1.09l-5.18,1.48C88.64,9.5,88.15,9.24,88,8.77
	C87.85,8.3,88.11,7.8,88.58,7.65z M86.04,8.48c0.47-0.16,0.97,0.1,1.12,0.56c0.16,0.46-0.09,0.97-0.56,1.13
	c-0.46,0.15-0.96-0.1-1.12-0.57C85.33,9.13,85.58,8.63,86.04,8.48z M78.49,11.28l5.1-1.96c0.46-0.16,0.97,0.08,1.14,0.54
	c0.17,0.46-0.08,0.97-0.54,1.13l-5.03,1.93c-0.46,0.18-0.97-0.03-1.16-0.49C77.81,11.98,78.04,11.47,78.49,11.28z M76.03,12.32
	c0.45-0.19,0.98,0.01,1.17,0.46c0.2,0.45-0.02,0.97-0.47,1.16c-0.45,0.19-0.97-0.01-1.16-0.46C75.38,13.04,75.58,12.51,76.03,12.32z
	 M68.75,15.77l4.92-2.39c0.44-0.2,0.97-0.01,1.18,0.43c0.2,0.45,0.01,0.97-0.44,1.18l-4.85,2.36c-0.43,0.23-0.97,0.06-1.19-0.38
	C68.15,16.53,68.31,15.99,68.75,15.77z M66.39,17.02c0.43-0.24,0.97-0.08,1.21,0.36c0.23,0.43,0.07,0.96-0.36,1.2
	c-0.43,0.24-0.97,0.08-1.21-0.36C65.8,17.79,65.96,17.25,66.39,17.02z M59.44,21.09l4.69-2.82c0.42-0.25,0.96-0.1,1.21,0.33
	c0.24,0.42,0.1,0.97-0.34,1.21l-4.61,2.77c-0.42,0.27-0.97,0.14-1.23-0.28C58.9,21.9,59.03,21.35,59.44,21.09z M57.2,22.54
	c0.41-0.27,0.97-0.16,1.24,0.25c0.27,0.41,0.16,0.97-0.25,1.24c-0.41,0.27-0.96,0.16-1.23-0.26C56.67,23.36,56.79,22.81,57.2,22.54z
	 M50.63,27.2l4.42-3.21c0.41-0.28,0.96-0.18,1.25,0.22c0.27,0.41,0.18,0.96-0.22,1.24l-4.36,3.17c-0.39,0.3-0.95,0.22-1.25-0.17
	C50.16,28.06,50.24,27.5,50.63,27.2z M48.52,28.84c0.39-0.3,0.94-0.24,1.25,0.15c0.3,0.38,0.24,0.94-0.15,1.25
	c-0.39,0.3-0.94,0.24-1.25-0.15C48.08,29.71,48.13,29.15,48.52,28.84z M42.38,34.06l4.13-3.59c0.37-0.31,0.94-0.26,1.25,0.11
	c0.32,0.38,0.26,0.94-0.12,1.26l-4.07,3.53c-0.35,0.33-0.92,0.31-1.25-0.05C41.99,34.96,42.03,34.39,42.38,34.06z M40.43,35.88
	c0.35-0.34,0.92-0.32,1.25,0.03c0.35,0.36,0.32,0.92-0.03,1.26c-0.35,0.34-0.92,0.33-1.25-0.03C40.06,36.78,40.07,36.22,40.43,35.88
	z M34.77,41.61l3.8-3.93c0.35-0.34,0.91-0.34,1.26,0.01c0.34,0.35,0.34,0.91-0.01,1.25l-3.74,3.87c-0.33,0.36-0.89,0.39-1.25,0.05
	C34.46,42.54,34.43,41.98,34.77,41.61z M32.98,43.59c0.33-0.37,0.88-0.4,1.26-0.07c0.36,0.33,0.4,0.89,0.08,1.25
	c-0.33,0.37-0.88,0.4-1.26,0.08C32.69,44.52,32.65,43.96,32.98,43.59z M27.84,49.8l3.44-4.25c0.31-0.37,0.87-0.42,1.25-0.1
	c0.38,0.32,0.42,0.88,0.11,1.25l-3.39,4.18c-0.3,0.39-0.87,0.46-1.25,0.16C27.61,50.74,27.54,50.19,27.84,49.8z M26.23,51.93
	c0.29-0.39,0.85-0.48,1.24-0.18c0.4,0.28,0.48,0.84,0.18,1.23c-0.29,0.39-0.85,0.47-1.24,0.18C26.02,52.88,25.94,52.32,26.23,51.93z
	 M21.65,58.56l3.05-4.53c0.28-0.4,0.84-0.49,1.24-0.21c0.4,0.28,0.49,0.83,0.21,1.24l-3.01,4.46c-0.27,0.42-0.81,0.53-1.22,0.27
	C21.5,59.52,21.38,58.97,21.65,58.56z M20.23,60.82c0.25-0.42,0.8-0.55,1.22-0.3c0.42,0.26,0.55,0.8,0.29,1.22
	c-0.25,0.42-0.79,0.56-1.22,0.3C20.11,61.78,19.97,61.24,20.23,60.82z M16.25,67.82l2.64-4.78c0.25-0.42,0.8-0.56,1.22-0.32
	c0.43,0.25,0.56,0.79,0.32,1.22l-2.61,4.71c-0.23,0.43-0.77,0.6-1.2,0.37C16.18,68.79,16.02,68.25,16.25,67.82z M15.03,70.19
	c0.22-0.43,0.75-0.61,1.19-0.39c0.44,0.22,0.61,0.75,0.39,1.19c-0.22,0.43-0.75,0.61-1.19,0.39C14.99,71.17,14.82,70.64,15.03,70.19
	z M11.67,77.53l2.22-5c0.22-0.44,0.74-0.63,1.19-0.42c0.44,0.22,0.63,0.74,0.42,1.18l-2.19,4.92c-0.19,0.45-0.71,0.66-1.16,0.47
	C11.7,78.5,11.48,77.98,11.67,77.53z M10.67,80c0.18-0.46,0.7-0.69,1.15-0.5c0.45,0.18,0.69,0.69,0.5,1.15
	c-0.18,0.46-0.71,0.68-1.16,0.5C10.72,80.96,10.48,80.45,10.67,80z M7.96,87.59l1.78-5.17c0.17-0.46,0.68-0.69,1.14-0.53
	c0.46,0.17,0.69,0.69,0.52,1.15l-1.76,5.09C9.5,88.59,9,88.85,8.54,88.71C8.07,88.55,7.81,88.05,7.96,87.59z M7.17,90.13
	c0.14-0.47,0.65-0.74,1.11-0.6c0.46,0.14,0.73,0.64,0.6,1.11c-0.14,0.47-0.63,0.74-1.1,0.6C7.3,91.11,7.03,90.6,7.17,90.13z
	 M5.14,97.93l1.32-5.31c0.14-0.47,0.62-0.75,1.1-0.62c0.47,0.13,0.75,0.62,0.62,1.09l-1.31,5.22C6.77,98.8,6.29,99.11,5.81,99
	C5.33,98.89,5.04,98.41,5.14,97.93z M4.58,100.54c0.1-0.48,0.58-0.79,1.04-0.69c0.49,0.09,0.79,0.57,0.7,1.05
	c-0.11,0.48-0.57,0.79-1.06,0.7C4.8,101.49,4.48,101.02,4.58,100.54z M3.23,108.49l0.85-5.4c0.09-0.48,0.56-0.8,1.03-0.71
	c0.48,0.08,0.8,0.55,0.72,1.03L5,108.72c-0.08,0.49-0.52,0.83-1,0.76C3.51,109.42,3.17,108.97,3.23,108.49z M2.91,111.13
	c0.06-0.49,0.49-0.84,0.98-0.78c0.49,0.05,0.84,0.49,0.79,0.98c-0.05,0.49-0.5,0.84-0.98,0.78C3.2,112.06,2.85,111.62,2.91,111.13z
	 M2.64,113.72c0.05-0.49,0.47-0.85,0.97-0.81c0.49,0.05,0.85,0.48,0.8,0.97l-0.38,5.37c-0.02,0.49-0.43,0.87-0.92,0.84
	c-0.49-0.02-0.87-0.44-0.84-0.92L2.64,113.72z M3.07,120.97c0.49,0.01,0.87,0.42,0.86,0.91c-0.02,0.48-0.43,0.88-0.91,0.86
	c-0.49-0.01-0.87-0.42-0.87-0.91C2.17,121.35,2.58,120.96,3.07,120.97z M2.12,124.42c0-0.49,0.4-0.89,0.89-0.88
	c0.49,0.01,0.88,0.4,0.88,0.89l0.09,5.38c0.03,0.5-0.36,0.9-0.85,0.93c-0.49,0.02-0.89-0.37-0.92-0.86L2.12,124.42z M3.17,131.62
	c0.49-0.03,0.91,0.34,0.93,0.83c0.03,0.49-0.33,0.91-0.82,0.94c-0.49,0.03-0.92-0.34-0.95-0.83C2.31,132.07,2.69,131.64,3.17,131.62
	z M3.1,140.58l-0.57-5.43c-0.04-0.49,0.33-0.92,0.81-0.96c0.49-0.04,0.92,0.33,0.95,0.81l0.57,5.36c0.06,0.49-0.28,0.93-0.77,0.99
	C3.6,141.41,3.15,141.07,3.1,140.58z M3.46,143.22c-0.07-0.48,0.26-0.93,0.75-1.02c0.49-0.06,0.93,0.27,1,0.75
	c0.08,0.49-0.26,0.94-0.74,1.01C3.99,144.04,3.53,143.71,3.46,143.22z M4.92,151.15l-1.04-5.37c-0.09-0.49,0.24-0.94,0.72-1.03
	c0.48-0.08,0.94,0.25,1.03,0.73l1.03,5.29c0.1,0.47-0.2,0.96-0.68,1.06C5.49,151.94,5.02,151.63,4.92,151.15z M5.51,153.76
	c-0.12-0.48,0.17-0.97,0.65-1.08c0.48-0.11,0.96,0.19,1.07,0.66c0.11,0.48-0.18,0.96-0.67,1.08C6.1,154.52,5.62,154.23,5.51,153.76z
	 M7.64,161.52l-1.51-5.26c-0.12-0.47,0.16-0.95,0.63-1.09c0.48-0.12,0.97,0.16,1.08,0.64L9.34,161c0.15,0.47-0.11,0.96-0.58,1.11
	C8.29,162.26,7.79,161.99,7.64,161.52z M8.47,164.06c-0.16-0.47,0.09-0.97,0.54-1.13c0.48-0.15,0.98,0.11,1.14,0.58
	c0.15,0.46-0.1,0.96-0.56,1.12C9.12,164.77,8.62,164.54,8.47,164.06z M11.26,171.62l-1.95-5.11c-0.16-0.46,0.08-0.98,0.54-1.14
	c0.46-0.16,0.96,0.09,1.13,0.54l1.93,5.03c0.19,0.45-0.04,0.97-0.48,1.16C11.97,172.29,11.45,172.08,11.26,171.62z M12.31,174.08
	c-0.19-0.45,0.01-0.97,0.46-1.16c0.45-0.2,0.97,0,1.17,0.46c0.2,0.44-0.01,0.97-0.46,1.17C13.03,174.74,12.5,174.52,12.31,174.08z
	 M15.76,181.35l-2.4-4.92c-0.2-0.44-0.01-0.98,0.43-1.17c0.45-0.21,0.97-0.02,1.18,0.43l2.36,4.84c0.22,0.43,0.05,0.98-0.38,1.2
	C16.52,181.96,15.98,181.79,15.76,181.35z M17.01,183.71c-0.24-0.43-0.07-0.97,0.36-1.19c0.43-0.24,0.97-0.08,1.2,0.36
	c0.24,0.43,0.08,0.97-0.36,1.2C17.78,184.31,17.24,184.14,17.01,183.71z M21.08,190.67l-2.82-4.68c-0.25-0.43-0.09-0.97,0.33-1.21
	c0.43-0.25,0.97-0.1,1.22,0.33l2.77,4.62c0.27,0.42,0.14,0.97-0.28,1.24C21.9,191.2,21.34,191.09,21.08,190.67z M22.53,192.91
	c-0.27-0.41-0.15-0.96,0.25-1.23c0.41-0.28,0.96-0.16,1.23,0.25c0.27,0.4,0.16,0.95-0.24,1.22
	C23.35,193.42,22.8,193.31,22.53,192.91z M28.44,199.65c-0.39,0.3-0.95,0.22-1.25-0.17l-3.21-4.43c-0.28-0.4-0.18-0.94,0.22-1.23
	c0.4-0.28,0.95-0.18,1.24,0.23l3.16,4.36C28.9,198.79,28.83,199.36,28.44,199.65z M30.09,201.73c-0.39,0.3-0.95,0.24-1.25-0.14
	c-0.31-0.39-0.24-0.95,0.14-1.25c0.38-0.31,0.95-0.25,1.25,0.14C30.53,200.86,30.47,201.43,30.09,201.73z M35.31,207.78
	c-0.37,0.34-0.93,0.31-1.26-0.06l-3.59-4.12c-0.31-0.38-0.26-0.94,0.12-1.25c0.37-0.31,0.94-0.26,1.25,0.11l3.53,4.07
	C35.71,206.9,35.68,207.45,35.31,207.78z M37.13,209.71c-0.36,0.34-0.92,0.33-1.26-0.04c-0.33-0.35-0.33-0.91,0.04-1.25
	c0.36-0.34,0.91-0.33,1.26,0.03C37.5,208.81,37.48,209.38,37.13,209.71z M42.87,215.29c-0.34,0.36-0.9,0.38-1.26,0.05l-3.93-3.8
	c-0.34-0.35-0.34-0.91,0.01-1.25c0.34-0.34,0.91-0.34,1.25,0l3.88,3.74C43.17,214.37,43.19,214.94,42.87,215.29z M44.84,217.05
	c-0.32,0.37-0.89,0.4-1.25,0.08c-0.37-0.33-0.4-0.88-0.07-1.25c0.33-0.37,0.88-0.4,1.25-0.08
	C45.13,216.13,45.17,216.69,44.84,217.05z M51.04,222.12c-0.3,0.38-0.86,0.46-1.25,0.16l-4.25-3.45c-0.37-0.31-0.42-0.87-0.1-1.25
	c0.32-0.37,0.88-0.41,1.25-0.1l4.19,3.4C51.27,221.18,51.34,221.72,51.04,222.12z M53.16,223.69c-0.29,0.4-0.85,0.48-1.24,0.2
	c-0.4-0.3-0.49-0.85-0.19-1.25c0.3-0.4,0.84-0.47,1.25-0.18C53.37,222.75,53.45,223.3,53.16,223.69z M59.79,228.2
	c-0.27,0.41-0.82,0.53-1.23,0.27l-4.53-3.06c-0.4-0.28-0.49-0.84-0.21-1.24c0.28-0.4,0.84-0.49,1.24-0.21l4.47,3.01
	C59.93,227.23,60.04,227.79,59.79,228.2z M62.04,229.59c-0.26,0.42-0.8,0.55-1.22,0.29c-0.43-0.26-0.56-0.8-0.3-1.22
	c0.25-0.42,0.79-0.55,1.22-0.3C62.16,228.62,62.29,229.17,62.04,229.59z M69.02,233.49c-0.22,0.43-0.76,0.6-1.19,0.37l-4.78-2.65
	c-0.43-0.25-0.56-0.79-0.32-1.22c0.24-0.42,0.79-0.56,1.22-0.32l4.71,2.62C69.08,232.52,69.24,233.06,69.02,233.49z M71.38,234.69
	c-0.22,0.43-0.75,0.62-1.19,0.39c-0.45-0.22-0.61-0.75-0.39-1.19c0.22-0.44,0.75-0.62,1.19-0.4
	C71.43,233.71,71.6,234.25,71.38,234.69z M78.68,237.96c-0.19,0.45-0.71,0.67-1.17,0.47l-4.99-2.22c-0.44-0.21-0.63-0.74-0.42-1.18
	c0.2-0.44,0.73-0.63,1.18-0.43l4.93,2.2C78.66,236.99,78.88,237.51,78.68,237.96z M81.15,238.94c-0.18,0.47-0.69,0.68-1.15,0.5
	c-0.45-0.18-0.68-0.69-0.51-1.15c0.19-0.46,0.71-0.67,1.16-0.49C81.11,237.96,81.33,238.48,81.15,238.94z M88.71,241.58
	c-0.16,0.46-0.65,0.73-1.12,0.56l-5.17-1.77c-0.46-0.18-0.7-0.68-0.53-1.14c0.17-0.47,0.69-0.69,1.14-0.53l5.09,1.76
	C88.6,240.61,88.85,241.11,88.71,241.58z M91.24,242.34c-0.14,0.47-0.63,0.74-1.11,0.6c-0.47-0.14-0.74-0.63-0.6-1.1
	c0.15-0.47,0.64-0.74,1.1-0.6C91.11,241.38,91.38,241.87,91.24,242.34z M98.99,244.3c-0.1,0.48-0.58,0.78-1.06,0.66l-5.3-1.32
	c-0.48-0.13-0.75-0.61-0.63-1.09c0.13-0.47,0.62-0.75,1.1-0.62l5.22,1.31C98.8,243.34,99.1,243.82,98.99,244.3z M101.59,244.84
	c-0.1,0.48-0.57,0.79-1.06,0.7c-0.47-0.11-0.79-0.58-0.69-1.06c0.09-0.48,0.56-0.79,1.05-0.69
	C101.38,243.88,101.69,244.36,101.59,244.84z M109.49,246.12c-0.06,0.48-0.52,0.83-1,0.76l-5.4-0.85c-0.48-0.09-0.8-0.56-0.71-1.03
	c0.08-0.49,0.55-0.81,1.03-0.72l5.32,0.85C109.22,245.18,109.56,245.63,109.49,246.12z M112.12,246.43
	c-0.05,0.49-0.49,0.85-0.98,0.79c-0.49-0.06-0.84-0.5-0.78-0.99c0.05-0.49,0.49-0.83,0.98-0.78
	C111.82,245.5,112.18,245.94,112.12,246.43z M119.17,247.86l-5.46-0.39c-0.49-0.04-0.85-0.47-0.81-0.96
	c0.05-0.49,0.49-0.85,0.98-0.8l5.37,0.37c0.49,0.02,0.87,0.44,0.85,0.93C120.07,247.51,119.66,247.88,119.17,247.86z M121.83,247.95
	c-0.49-0.01-0.87-0.41-0.86-0.9c0.01-0.48,0.42-0.88,0.91-0.86c0.49,0.01,0.87,0.41,0.86,0.9
	C122.73,247.59,122.33,247.98,121.83,247.95z M129.89,247.9l-5.46,0.1c-0.49-0.01-0.9-0.4-0.9-0.89c0.01-0.49,0.41-0.89,0.9-0.89
	l5.39-0.08c0.5-0.03,0.9,0.35,0.93,0.85C130.77,247.47,130.39,247.88,129.89,247.9z M132.57,247.77c-0.5,0.04-0.91-0.33-0.94-0.83
	c-0.03-0.49,0.34-0.91,0.83-0.95c0.49-0.02,0.9,0.35,0.94,0.84C133.42,247.32,133.05,247.74,132.57,247.77z M140.59,247.01
	l-5.43,0.58c-0.49,0.03-0.92-0.32-0.96-0.81c-0.05-0.5,0.32-0.92,0.8-0.97l5.36-0.56c0.49-0.07,0.93,0.28,1,0.77
	C141.42,246.51,141.07,246.95,140.59,247.01z M143.24,246.64c-0.49,0.08-0.94-0.26-1.01-0.74c-0.07-0.48,0.25-0.94,0.74-1.01
	c0.49-0.07,0.95,0.26,1.01,0.75C144.05,246.13,143.72,246.57,143.24,246.64z M151.16,245.2l-5.37,1.04
	c-0.49,0.08-0.94-0.25-1.03-0.73c-0.09-0.48,0.24-0.94,0.73-1.03l5.28-1.02c0.49-0.1,0.95,0.2,1.06,0.68
	C151.94,244.62,151.64,245.1,151.16,245.2z M153.76,244.61c-0.48,0.12-0.95-0.19-1.07-0.66c-0.12-0.47,0.17-0.96,0.66-1.07
	c0.47-0.11,0.96,0.18,1.06,0.65C154.53,244.02,154.24,244.49,153.76,244.61z M161.53,242.47l-5.25,1.5
	c-0.48,0.13-0.96-0.16-1.08-0.63c-0.13-0.47,0.15-0.95,0.63-1.08l5.18-1.49c0.47-0.14,0.97,0.13,1.11,0.6
	C162.26,241.81,162,242.32,161.53,242.47z M164.07,241.64c-0.46,0.15-0.97-0.09-1.12-0.56c-0.16-0.47,0.09-0.97,0.56-1.13
	c0.47-0.15,0.97,0.09,1.13,0.56C164.79,240.98,164.53,241.49,164.07,241.64z M171.63,238.83l-5.11,1.96
	c-0.46,0.17-0.97-0.07-1.13-0.53c-0.17-0.47,0.07-0.98,0.54-1.14l5.03-1.93c0.45-0.18,0.97,0.03,1.15,0.48
	C172.3,238.13,172.08,238.65,171.63,238.83z M174.08,237.8c-0.45,0.2-0.97-0.01-1.17-0.46c-0.19-0.46,0.01-0.98,0.46-1.17
	c0.46-0.19,0.98,0.01,1.17,0.47C174.74,237.08,174.53,237.61,174.08,237.8z M181.37,234.35l-4.92,2.4c-0.44,0.2-0.97,0-1.18-0.44
	c-0.2-0.45-0.01-0.97,0.43-1.18l4.85-2.36c0.43-0.23,0.97-0.05,1.2,0.38C181.97,233.59,181.8,234.12,181.37,234.35z M183.73,233.1
	c-0.43,0.23-0.97,0.07-1.21-0.36c-0.23-0.43-0.07-0.97,0.36-1.2c0.43-0.24,0.97-0.08,1.21,0.35
	C184.32,232.32,184.16,232.86,183.73,233.1z M190.68,229.02l-4.69,2.81c-0.43,0.25-0.97,0.1-1.21-0.33
	c-0.24-0.43-0.09-0.98,0.34-1.21l4.61-2.77c0.41-0.27,0.97-0.14,1.23,0.27C191.22,228.22,191.09,228.76,190.68,229.02z
	 M192.92,227.58c-0.41,0.27-0.97,0.16-1.23-0.25c-0.27-0.41-0.15-0.97,0.25-1.24c0.41-0.27,0.97-0.15,1.24,0.26
	C193.45,226.75,193.33,227.31,192.92,227.58z M199.5,222.91l-4.42,3.21c-0.4,0.28-0.96,0.18-1.24-0.22
	c-0.28-0.41-0.18-0.96,0.23-1.23l4.35-3.16c0.4-0.3,0.95-0.23,1.25,0.16C199.96,222.05,199.88,222.61,199.5,222.91z M201.6,221.27
	c-0.39,0.31-0.94,0.24-1.24-0.15c-0.31-0.38-0.25-0.94,0.14-1.25c0.38-0.3,0.94-0.24,1.25,0.15
	C202.05,220.41,201.98,220.97,201.6,221.27z M207.74,216.04l-4.13,3.58c-0.38,0.33-0.95,0.27-1.25-0.11
	c-0.32-0.38-0.27-0.94,0.11-1.25l4.07-3.53c0.36-0.33,0.93-0.31,1.25,0.06C208.12,215.15,208.1,215.72,207.74,216.04z M209.7,214.23
	c-0.36,0.33-0.92,0.33-1.25-0.03c-0.35-0.36-0.32-0.92,0.03-1.25c0.35-0.34,0.92-0.32,1.25,0.04
	C210.07,213.33,210.05,213.9,209.7,214.23z M215.36,208.49l-3.8,3.94c-0.35,0.34-0.91,0.34-1.27-0.01
	c-0.34-0.35-0.33-0.91,0.02-1.26l3.75-3.87c0.33-0.36,0.89-0.38,1.25-0.05C215.66,207.57,215.69,208.13,215.36,208.49z
	 M217.15,206.52c-0.33,0.36-0.89,0.4-1.26,0.07c-0.37-0.33-0.4-0.87-0.08-1.25c0.32-0.36,0.88-0.4,1.25-0.08
	C217.43,205.59,217.47,206.15,217.15,206.52z M222.28,200.31l-3.45,4.25c-0.31,0.37-0.87,0.42-1.25,0.1
	c-0.37-0.31-0.42-0.87-0.1-1.25l3.39-4.18c0.3-0.39,0.86-0.46,1.25-0.16C222.52,199.37,222.59,199.92,222.28,200.31z M223.9,198.18
	c-0.29,0.4-0.85,0.48-1.24,0.19c-0.4-0.29-0.48-0.84-0.18-1.25c0.29-0.39,0.84-0.47,1.24-0.18
	C224.1,197.23,224.19,197.79,223.9,198.18z M228.48,191.55l-3.06,4.53c-0.28,0.4-0.84,0.49-1.23,0.21
	c-0.41-0.29-0.49-0.83-0.22-1.25l3.02-4.46c0.27-0.41,0.81-0.53,1.23-0.27C228.63,190.59,228.74,191.13,228.48,191.55z
	 M229.9,189.28c-0.27,0.43-0.81,0.55-1.22,0.29c-0.43-0.25-0.56-0.8-0.29-1.22c0.25-0.41,0.8-0.54,1.22-0.29
	C230.02,188.32,230.15,188.86,229.9,189.28z M233.88,182.28l-2.65,4.78c-0.25,0.43-0.79,0.57-1.22,0.32
	c-0.43-0.25-0.57-0.79-0.33-1.21l2.62-4.71c0.23-0.44,0.77-0.6,1.2-0.37C233.94,181.31,234.11,181.84,233.88,182.28z M235.09,179.91
	c-0.21,0.43-0.75,0.6-1.19,0.38c-0.44-0.21-0.61-0.74-0.39-1.18c0.22-0.44,0.75-0.61,1.19-0.4
	C235.14,178.93,235.31,179.46,235.09,179.91z M238.45,172.57l-2.22,5c-0.21,0.44-0.73,0.63-1.18,0.42
	c-0.45-0.21-0.63-0.74-0.42-1.17l2.19-4.94c0.19-0.45,0.71-0.66,1.17-0.47C238.43,171.6,238.64,172.13,238.45,172.57z M239.46,170.1
	c-0.18,0.46-0.69,0.68-1.15,0.5c-0.46-0.18-0.68-0.7-0.51-1.16c0.19-0.45,0.71-0.68,1.16-0.5
	C239.42,169.13,239.64,169.65,239.46,170.1z M242.17,162.51l-1.78,5.17c-0.17,0.46-0.68,0.69-1.14,0.52
	c-0.46-0.17-0.69-0.68-0.52-1.14l1.75-5.1c0.15-0.47,0.65-0.72,1.12-0.58C242.06,161.55,242.32,162.04,242.17,162.51z
	 M242.95,159.96c-0.14,0.47-0.64,0.74-1.11,0.6c-0.46-0.15-0.73-0.64-0.6-1.11c0.14-0.47,0.64-0.74,1.11-0.6
	C242.82,159,243.09,159.49,242.95,159.96z M244.99,152.17l-1.33,5.3c-0.13,0.47-0.62,0.75-1.09,0.63c-0.47-0.13-0.76-0.62-0.62-1.1
	l1.3-5.22c0.11-0.47,0.58-0.78,1.06-0.67C244.8,151.21,245.1,151.68,244.99,152.17z M245.55,149.55c-0.1,0.47-0.56,0.79-1.05,0.69
	c-0.48-0.09-0.79-0.56-0.69-1.04c0.1-0.48,0.56-0.79,1.04-0.7C245.34,148.6,245.64,149.07,245.55,149.55z M246.89,141.61l-0.86,5.4
	c-0.09,0.48-0.55,0.79-1.03,0.71c-0.48-0.09-0.8-0.54-0.71-1.03l0.84-5.32c0.08-0.49,0.52-0.83,1.01-0.76
	C246.62,140.67,246.97,141.12,246.89,141.61z M247.23,138.95c-0.06,0.49-0.5,0.85-0.99,0.79c-0.48-0.05-0.83-0.5-0.78-0.98
	c0.05-0.49,0.49-0.84,0.98-0.78C246.93,138.03,247.27,138.47,247.23,138.95z M247.48,136.38c-0.04,0.49-0.47,0.85-0.96,0.8
	c-0.49-0.04-0.85-0.48-0.8-0.97l0.38-5.38c0.03-0.49,0.43-0.86,0.93-0.84c0.48,0.02,0.86,0.43,0.84,0.93L247.48,136.38z
	 M247.06,129.11c-0.49-0.01-0.87-0.42-0.85-0.91c0.01-0.49,0.42-0.88,0.9-0.86c0.49,0.01,0.88,0.42,0.87,0.91
	C247.96,128.74,247.55,129.13,247.06,129.11z M125.05,32.81c-50.94,0-92.23,41.3-92.23,92.23s41.3,92.23,92.23,92.23
	c50.94,0,92.23-41.29,92.23-92.23S175.98,32.81,125.05,32.81z M125.05,215.19c-19.25,0-37.1-6.04-51.74-16.32h103.47
	C162.14,209.15,144.29,215.19,125.05,215.19z M77.06,143.29c1.19-1.02,3-1.23,3.79-2.65c1.33,1.8,1.65,4.41,0.87,6.32
	c-1.36,1.06-1.99,1.7-4.5,2.95c0-0.6,0.4-1,0.69-1.51C79.3,146.69,76.78,145.2,77.06,143.29z M79.6,136.47
	c-0.49-0.39,0-0.63,0.24-1.26c0.26-0.62,2.55-4.94,3.94-6.44c2.56-2.77,8.53-6.2,10-7.25c0.73-0.52,1-0.75,0.88-0.12
	c-0.13,1-0.13,4.77,0.12,5.78c0.25,1,0.51,1.75,0.76,2.51c-1.88,2.38-4.4,4.6-5.73,5.35c-2.89,1.63-5.94,5.69-6.32,6.45
	c-0.37,0.75-0.62,0.75-1.01-0.38C82.11,139.98,80.22,136.98,79.6,136.47z M81.02,123.29c-0.29-0.93-1.26-3.14-1.75-3.81
	c-0.52-0.67-1.18-1.43-1.14-2.09c0.42-0.92,1.22-2.13,2.01-3.18c0.79-1.04,2.89-3.63,4.65-4.77c1.75-1.13,3.43-1.92,4.39-2.43
	c0.97-0.5,2.43-0.71,2.85-1.05c0.42-0.33,1.38-1.59,1.83-1.72c0.11-0.02,0.19-0.04,0.25-0.05c0.11,0.16,0.24,0.34,0.37,0.51
	c0.21,1.44,1.22,4.22,2.4,5.11c-0.5,0.96-0.92,2-1.76,2.81c-1.09,1.04-3.41,2.59-4.98,3.26c-2.64,1.13-5.45,3.35-6.86,4.9
	C81.86,122.33,81.23,122.96,81.02,123.29z M82.87,122.58c0,0.58-0.09,1.38-1.05,1.46c-0.08-0.12-0.08-0.54,0.21-0.84
	C82.32,122.91,82.44,122.71,82.87,122.58z M81.01,100.52c0.33,0,0.59,0,1-0.42c0,0.84-0.5,1.34-1.09,1.34
	c-0.59,0-1.42-0.33-1.42-1.43c0-1.09,0.66-2.59,3.59-2.59h9.55l0,0c2.93,0,3.6,1.51,3.6,2.59c0,1.09-0.83,1.43-1.43,1.43
	c-0.58,0-1.08-0.5-1.08-1.34c0.42,0.42,0.67,0.42,1,0.42c0.33,0,0.68-0.33,0.68-0.75c0-0.42-0.68-1.19-1.35-1.19
	c-0.67,0-1.34,0.19-1.5,0.6h-0.14h-9.24c-0.16-0.41-0.83-0.6-1.49-0.6c-0.68,0-1.35,0.77-1.35,1.19
	C80.33,100.19,80.67,100.52,81.01,100.52z M125.05,62.63c-20.24,0-27.66,13.18-33.41,24.28l-8.03,0l0.62-1.3
	c7.03-13.62,15.9-30.41,40.82-30.41c24.92,0,33.79,16.78,40.83,30.41l0.61,1.3l-8.02,0C152.71,75.82,145.29,62.63,125.05,62.63z
	 M156.78,86.91H93.32c5.56-10.72,12.23-23.07,31.73-23.07C144.54,63.84,151.22,76.19,156.78,86.91z M171.56,88.12l-0.01,1.28H79.02
	v-1.28H171.56z M167.54,90.51l-1.02,1.28H84.04l-1.01-1.28H167.54z M168.9,98.58c-0.66,0-1.33,0.19-1.5,0.6h-9.38
	c-0.06-0.16-0.2-0.29-0.39-0.39c-0.29-0.15-0.7-0.22-1.1-0.22c-0.68,0-1.35,0.77-1.35,1.19c0,0.42,0.34,0.75,0.67,0.75
	c0.33,0,0.59,0,1-0.42c0,0.84-0.5,1.34-1.09,1.34c-0.59,0-1.42-0.33-1.42-1.43c0-1.02,0.59-2.42,3.1-2.57
	c0.16-0.02,0.33-0.02,0.49-0.02h9.55c2.93,0,3.6,1.51,3.6,2.59c0,1.09-0.84,1.43-1.43,1.43c-0.58,0-1.08-0.5-1.08-1.34
	c0.42,0.42,0.67,0.42,1,0.42c0.34,0,0.68-0.33,0.68-0.75C170.25,99.35,169.58,98.58,168.9,98.58z M172.57,148.4
	c0.3,0.51,0.7,0.91,0.69,1.51c-2.51-1.26-3.14-1.89-4.5-2.95c-0.79-1.91-0.46-4.52,0.87-6.32c0.79,1.42,2.6,1.63,3.8,2.65
	C173.7,145.2,171.18,146.69,172.57,148.4z M167.99,141.12c-0.38,1.13-0.63,1.13-1.01,0.38c-0.38-0.76-3.43-4.82-6.32-6.45
	c-1.33-0.76-3.84-2.97-5.73-5.35c0.25-0.76,0.5-1.51,0.75-2.51c0.24-1,0.24-4.77,0.12-5.78c-0.12-0.63,0.15-0.4,0.88,0.12
	c1.47,1.05,7.44,4.48,10,7.25c1.39,1.5,3.68,5.82,3.93,6.44c0.25,0.62,0.74,0.87,0.25,1.26
	C170.25,136.98,168.37,139.98,167.99,141.12z M169.49,182.63h-13.56v-2.09h13.56V182.63z M93.52,168.07
	c-0.06-3.92-0.34-21.54-0.55-33.66c0.46-0.91,1.39-2.01,3.2-3.71c0.38-0.25,0.74-0.62,0.38-1.26c-0.8-1.38-0.88-5.53-0.75-8.29
	c0.1-2.39-1.12-3.13-3.1-3.5c0-0.57,0-1.14,0-1.71c1.61-0.72,3.75-3.1,4.36-4.2c0.63-1.13,1.38-2.26,0.5-3.26
	c-0.37-0.42-0.73-0.85-1.06-1.33c3.33,3.36,9.28,6.51,13.48,8.28c3.94,1.66,9.3,2.26,10.13,2.35c0.04,0.01,0.08,0.01,0.12,0.02
	c-0.01,2.12-0.03,4.3-0.08,6.3c-0.16,7.2-0.67,38.58-0.75,43.98c-0.09,5.41,0.54,9.08-2.84,11.18v3.39H96.36v-3.39
	C92.98,177.14,93.6,173.47,93.52,168.07z M92.74,119.48c-0.04-0.21,0.17-0.29,0.37-0.12c0.23,0.19,0.75,0.29,0.5,0.71
	c-0.25,0.42-0.59,0.67-0.92,0.88C92.7,120.32,92.78,119.68,92.74,119.48z M97.43,101.13c0.63,0.25,1.51,0.63,1.51,0.63
	s0.38,0,0.25,0.32c-0.33,0.84-0.87,1.82-1.5,2.45c-0.25,0.25-0.44,0.44-0.75,0.06c-0.32-0.37-0.69-1.38-0.95-1.64
	C96.41,102.7,97.31,101.88,97.43,101.13z M118.19,100.52c0.34,0,0.58,0,1-0.42c0,0.84-0.5,1.34-1.09,1.34
	c-0.58,0-1.42-0.33-1.42-1.43c0-1.09,0.68-2.59,3.61-2.59h9.53c2.93,0,3.6,1.51,3.6,2.59c0,1.09-0.84,1.43-1.42,1.43
	c-0.59,0-1.09-0.5-1.09-1.34c0.42,0.42,0.66,0.42,1,0.42c0.34,0,0.67-0.33,0.67-0.75c0-0.42-0.67-1.19-1.33-1.19
	c-0.67,0-1.34,0.19-1.51,0.6h-9.37c-0.17-0.41-0.84-0.6-1.51-0.6c-0.67,0-1.33,0.77-1.33,1.19
	C117.52,100.19,117.85,100.52,118.19,100.52z M117.1,94.16v-1.25H133v1.25H117.1z M131.08,95.08c-0.6,0.42-1.18,1.17-1.18,1.67
	h-9.71c0-0.5-0.59-1.25-1.17-1.67H131.08z M129.81,102.45h-9.53c0.41-0.67,0.66-1.67,0.66-2.26h8.2
	C129.15,100.78,129.4,101.78,129.81,102.45z M125.05,103.96c1.86,0,3.35,0.51,3.7,3.35c-1.19,0.1-2.41,0.16-3.7,0.16
	c-1.29,0-2.51-0.06-3.71-0.15C121.7,104.47,123.19,103.96,125.05,103.96z M125.11,108.86c10.85,0,17.82-3.58,19.08-4.21
	c1.26-0.63,4.01-2.08,5.27-2.82c0.38-0.23,0.22-0.05,0.31,0.19c0.13,0.31,2.08,3.51,2.26,3.77c0.19,0.25,0.37,0.31,0.06,0.69
	c-0.31,0.37-4.02,3.58-7.09,5.27c-3.08,1.7-9.98,4.9-19.9,4.9c-9.93,0-16.82-3.2-19.91-4.9c-3.07-1.7-6.78-4.9-7.08-5.27
	c-0.32-0.38-0.13-0.44,0.06-0.69c0.18-0.25,2.14-3.46,2.26-3.77c0.1-0.24-0.07-0.42,0.31-0.19c1.25,0.75,4.01,2.19,5.27,2.82
	C107.28,105.28,114.26,108.86,125.11,108.86z M151.42,101.7c0,0,0.88-0.37,1.5-0.63c0.13,0.75,1,1.57,1.44,1.82
	c-0.25,0.25-0.63,1.26-0.94,1.64c-0.32,0.38-0.51,0.19-0.75-0.07c-0.63-0.62-1.17-1.61-1.51-2.44
	C151.04,101.7,151.42,101.7,151.42,101.7z M120.77,172.17c0-2.59-0.08-17.75,0-22.94c0.05-3.32,0.19-17.83,0.31-28.76
	c0.02-0.04,0.02-0.07,0.04-0.11c0.41-1.42,2.01-2.42,3.93-2.42c1.92,0,3.51,1,3.93,2.42c0.01,0.04,0.02,0.07,0.04,0.11
	c0.12,10.93,0.25,25.45,0.3,28.77c0.08,5.19,0,20.35,0,22.94c0,2.59,0.49,6.27,1.59,7.28h-11.72
	C120.29,178.45,120.77,174.77,120.77,172.17z M118.27,180.54h13.56v2.09h-13.56V180.54z M130.7,168.07
	c-0.08-5.4-0.59-36.78-0.76-43.98c-0.05-2-0.07-4.18-0.08-6.3c0.05-0.01,0.08-0.01,0.12-0.02c0.84-0.09,6.19-0.69,10.13-2.35
	c4.64-1.96,11.42-5.58,14.44-9.34c-0.44,1.01-1.04,1.71-1.64,2.39c-0.88,1-0.12,2.14,0.51,3.26c0.62,1.12,2.84,3.59,4.46,4.25
	c0,0.28,0,0.55,0,0.82c-0.03,0.42-0.07,0.83-0.07,0.83c-2.01,0.38-3.25,1.11-3.14,3.52c0.12,2.76,0.04,6.91-0.76,8.29
	c-0.36,0.63,0,1,0.38,1.26c1.97,1.83,2.89,2.97,3.31,3.93c-0.21,12.11-0.49,29.55-0.54,33.44c-0.09,5.41,0.54,9.08-2.85,11.18v3.39
	h-7.34c0.06-0.49,0.11-1,0.13-1.5c0.17-3.89,1.17-6.82,1.26-8.38c0.93-0.64,1.35-4.19,1.43-5.45c0.09-1.28,0.34-1.61,0.34-2.55
	c0-1.77-0.93-3.04-1.1-3.63c-0.17-0.59,0.01-2.1-1.21-2.24c-1.01-0.13-1.14-0.26-1.26-1.02c-0.12-0.76,0.44-1.45,0.83-1.45
	c0.44,0,0.93-0.75,0.12-1.33c-1.14-0.83-0.82-1.26-1.52-1.83c-0.46-0.38-0.76-0.51-1.2-0.51c-0.45,0-1.33,0.45-1.52,0.76
	c-0.19,0.33-0.76,0.83-1.08,1.02c-0.32,0.19-0.76,0.64-0.82,1.27c-0.07,0.64,0.25,0.9,0.57,0.9c0.32,0,0.63-0.2,0.88,0
	c-0.12,0.5,0.29,1.03,0.39,1.2c0.26,0.45,0.26,0.79-0.19,0.95c-1.08,0.38-1.78,0.44-1.97,1.33c0-0.76-0.22-2.72-0.22-3.93
	c0-1.18,0.1-2.94-0.59-0.34c-0.84,3.22-1.26,9.72-1.09,13.95c0.51,1.7,1.22,2.03,2.49,3.47c0.21,3.77,0.68,4.81,0.76,5.64
	c0.05,0.59,0.3,2.4,0.45,3.69h-9.22v-3.39C130.16,177.14,130.78,173.47,130.7,168.07z M157.78,120.95c-0.33-0.2-0.67-0.46-0.92-0.88
	c-0.24-0.42,0.27-0.52,0.51-0.71c0.2-0.17,0.42-0.09,0.37,0.12C157.69,119.68,157.78,120.32,157.78,120.95z M145.4,186.34
	c0.06-0.25,0.38-0.32,0.69-0.32c0.32,0,0.51,0.18,0.64,0.44c0.12,0.26-0.07,0.5-0.32,0.5c-0.25,0-0.51,0-0.76,0
	C145.4,186.96,145.33,186.58,145.4,186.34z M145.3,184.52c0-0.31-0.25-4.85-0.25-5.54c0.44-0.23,0.74-0.05,1.08,0
	c0.5,0.06,0.31,0.85,0.25,1.56c-0.04,0.42-0.13,1.06-0.22,2.06c-0.05,0.65-0.08,1.76-0.14,2.22
	C146.03,184.82,145.3,185.01,145.3,184.52z M145.81,178.15c-0.54,0.05-0.76,0.29-0.79-0.22c-0.05-0.7,0-5.62,0-6.62
	c0.19-0.26,1.58,1.11,1.9,1.54c0.32,0.45,0.01,1.25-0.1,2.06C146.69,175.9,146.47,178.1,145.81,178.15z M144.7,164.39
	c-0.57-0.56-2.35-2.98-2.66-3.86c0.24-0.2,0.88-0.64,1.14-0.69c0.38,0.76,1.36,2.71,2.22,3.55c0.84,0.82,2.09,2.41,1.83,3.86
	c-0.26,0-0.95-0.25-1.14-0.43C146.16,165.86,145.27,164.97,144.7,164.39z M144.19,184.88c-0.57,0.03-0.47-0.92-0.57-1.71
	c-0.06-0.56-0.41-2.25-0.47-2.95c-0.1-1.01,0.03-1.26,0.88-1.33c0.43-0.02,0.34,0.67,0.42,1.5c0.06,0.82,0.18,3.23,0.12,3.8
	C144.51,184.75,144.7,184.85,144.19,184.88z M143.88,186.96c-0.26,0-0.54-0.01-0.64-0.18c-0.12-0.25,0.24-0.61,0.48-0.69
	c0.53-0.2,0.65,0.04,0.69,0.38C144.47,186.96,144.38,186.96,143.88,186.96z M142.31,173.46c-0.11-0.76,0.74-1.55,1.87-2.12
	c0.03,0.5,0.01,1.9,0.03,2.5c0.01,0.11,0.18,0.19,0.21,0.3c0.06,1.67,0.05,3.18,0.05,4.12c-0.75,0-1.2,0.16-1.39-0.48
	C142.89,177.14,142.45,174.23,142.31,173.46z M141.28,164.53c-0.19-0.38-0.19-0.9,0-1.27c0.19-0.38,0.63-0.89,0.82-0.89
	c0.63,0.76,2.37,2.6,2.35,3.87c-0.04,2.18-2.23,4.56-2.54,4.88c-0.51,0.54-0.51,0.43-0.7-0.13c-0.15-0.46-0.06-2.6,0.07-3.42
	C141.4,166.74,141.47,164.9,141.28,164.53z M144.63,157.61c0.26-0.18,0.04-0.54-0.03-0.98c-0.07-0.45,0.03-0.41,0.44-0.41
	c0.6,0,0.73,0.38,0.6,0.88c-0.13,0.51-0.38,1.71,0.06,1.78c-0.06,0.44,0.51,0.88,0.89,0.95c0.38,0.05,0.63,0.12,0.82,0
	c0.19-0.13,0.26-0.13,0.39,0.25c0.12,0.38,0.77,1.66,0.95,2.28c0.31,1.09,0.29,3.53,0.19,4.5c-0.12,1.24,0.04,1.85-0.5,1.78
	c-0.87-0.12-0.89,0.09-0.7,1.34c0.15,0.94,0.35,1.8,0.16,2.31c-0.95-0.82-2.28-2.6-2.25-3.83c0.03-0.77,0-1.08,0-1.08l0.25-0.18
	c0.32,0.43,1.01,1.14,1.27,1.14c0.25,0,0.52-0.45,0.64-1.14c0.12-0.71-0.07-2.66-0.07-3.24c-0.38,0.06-0.94-0.07-1.71-0.83
	c-1.27-1.26-1.9-2.66-2.09-3.74c0.63-0.06,1.14-0.57,1.08-0.88c-0.07-0.32-0.5-0.04-0.76-0.26c-0.27-0.22-0.31-0.57-0.44-0.89
	C144.13,157.68,144.38,157.81,144.63,157.61z M144,154.44c0-0.25,0.14-0.43,0.38-0.63c0.37-0.27,0.64-0.45,0.9,0
	c0.25,0.43,0.51,0.69,0.69,0.88c0.2,0.2,0.31,0.45-0.12,0.51c-0.44,0.07-1.21,0.07-1.46,0.07C144.13,155.01,144,154.7,144,154.44z
	 M143.68,155.71l-1.14-0.07c0.19-0.26,0.51-0.44,0.83-0.44L143.68,155.71z M140.6,170.72c-0.55-0.47-0.89-1.25-0.91-1.88
	C140.71,168.84,140.6,170.15,140.6,170.72z M139.95,164.27c0-0.31,0-0.58,0.06-0.82c0.32,0.24,0.44,1.2,0.38,2.03
	c-0.06,0.82-0.19,1.52-0.25,0.95C140.07,165.86,139.88,164.77,139.95,164.27z M147.42,185.7c-0.07-0.12-0.31-0.31-0.63-0.53
	c-0.11-0.26-0.09-0.72-0.05-1.28h25.41v2.93h-24.48C147.74,186.51,147.63,186.06,147.42,185.7z M156.85,179.46
	c1.08-1.01,1.6-4.69,1.6-7.28c0-2.59-0.09-17.75,0-22.94c0.02-1.33,0.05-4.48,0.08-8.46c0.32-0.1,0.65-0.81,0.79-1.54
	c0.38-1.88,1.27-2.69,3.47-0.63c1.76,1.63,3.32,3.06,4.13,5.47c0.02,2.39,0.05,4.22,0.06,5.15c0.08,5.19,0,20.35,0,22.94
	c0,2.59,0.5,6.27,1.59,7.28H156.85z M165.23,125.92c-3.02-2.25-4.52-3.13-5.78-3.89c-0.4-0.23-0.62-0.53-0.71-0.85
	c0.01-0.34,0.01-0.68,0.01-1.02c0.11-0.43,0.33-0.88,0.57-1.26c0.62-1.01,1.26-1.64,2.77-0.75c1.3,0.75,3.74,2.27,4.61,3.64
	c0.02,1.78,0.04,3.63,0.05,5.5C166.28,126.8,165.78,126.34,165.23,125.92z M167.19,120.78c-1.42-1.55-4.23-3.77-6.86-4.9
	c-1.57-0.67-3.88-2.22-4.98-3.26c-0.83-0.8-1.26-1.84-1.76-2.81c1.22-0.92,2.27-3.88,2.43-5.27c0.05-0.37,0.13-0.42,0.59-0.3
	c0.46,0.13,1.42,1.38,1.84,1.72c0.41,0.34,1.87,0.54,2.84,1.05c0.96,0.5,2.64,1.3,4.39,2.43c1.75,1.13,3.85,3.73,4.65,4.77
	c0.79,1.05,1.59,2.26,2.01,3.18c0.04,0.67-0.63,1.42-1.13,2.09c-0.5,0.67-1.46,2.88-1.76,3.81
	C169.24,122.96,168.62,122.33,167.19,120.78z M168.65,124.04c-0.95-0.08-1.04-0.88-1.04-1.46c0.42,0.13,0.54,0.33,0.84,0.62
	C168.73,123.5,168.73,123.92,168.65,124.04z M163.72,107.1c-1.63-0.75-3.01-1.2-4.13-1.71c0.67-1.17,1.81-1.43,3.13-1.43
	c2.01,0,3.6,0.59,3.77,4.1c0,0.18,0.01,0.46,0.03,0.79C165.57,108.12,164.62,107.52,163.72,107.1z M157.94,102.45
	c0.42-0.67,0.68-1.67,0.68-2.26h8.2c0,0.59,0.25,1.59,0.67,2.26H157.94z M167.57,96.76h-9.71c0-0.5-0.58-1.25-1.17-1.67h12.04
	C168.16,95.5,167.57,96.25,167.57,96.76z M156.47,96.63c-1.39,0.12-2.28,0.95-2.71,1.82c-0.11,0.2-0.19,0.41-0.25,0.65
	c-0.42,1.59-1.59,1.51-2.26,1.67c-0.75-0.5-1.09-0.67-1.58-0.84c-0.52-0.17-0.52-0.08-1.18,0.34c-3.72,2.36-9.6,5.94-18.6,6.93
	c-0.01-0.55-0.01-0.97-0.03-1.2c-0.05-0.75,0.16-1.29,0.84-1.84c0.67-0.55,0.67-1.18,0.38-1.43c2.67,0,3.22-1.96,3.22-3.09
	c0-1.13-0.97-2.85-3.02-3.02c0.14-0.84,1.01-1.47,2.1-1.63h20.98C155.46,95.16,156.34,95.79,156.47,96.63z M134.09,94.16v-1.25
	h19.16v1.25H134.09z M170.67,94.16h-16.4v-1.25h16.4V94.16z M116.01,92.91v1.25H96.85v-1.25H116.01z M95.84,92.91v1.25H79.87v-1.25
	H95.84z M116.7,95c1.09,0.16,1.97,0.79,2.12,1.63c-2.06,0.17-3.01,1.88-3.01,3.02c0,1.13,0.54,3.09,3.22,3.09
	c-0.29,0.25-0.29,0.88,0.37,1.43c0.67,0.54,0.89,1.08,0.84,1.84c-0.01,0.23-0.02,0.64-0.02,1.2c-9-0.98-14.87-4.56-18.6-6.93
	c-0.67-0.42-0.67-0.5-1.17-0.34c-0.5,0.17-0.84,0.34-1.59,0.84c-0.49-0.12-1.23-0.12-1.76-0.69c0.02-0.16,0.03-0.3,0.03-0.43
	c0-1.13-0.96-2.85-3.01-3.02c0.14-0.84,1.01-1.47,2.09-1.63H116.7z M93.89,95.08c-0.58,0.42-1.17,1.17-1.17,1.67h-9.71
	c0-0.5-0.59-1.25-1.17-1.67H93.89z M83.77,100.19h8.2c0,0.59,0.25,1.59,0.68,2.26H83.1C83.52,101.78,83.77,100.78,83.77,100.19z
	 M84.1,108.06c0.16-3.52,1.76-4.1,3.77-4.1c1.31,0,2.44,0.25,3.11,1.39c-1.14,0.52-2.55,0.98-4.22,1.75
	c-0.87,0.4-1.77,0.98-2.68,1.67C84.09,108.47,84.1,108.23,84.1,108.06z M83.89,121.63c0.96-1.33,3.25-2.76,4.5-3.48
	c1.51-0.88,2.14-0.25,2.77,0.75c0.62,1,1.13,2.38-0.13,3.13c-1.26,0.76-2.76,1.64-5.78,3.89c-0.5,0.38-0.97,0.81-1.42,1.25
	C83.86,125.29,83.87,123.42,83.89,121.63z M83.61,149.24c0.01-0.98,0.03-2.95,0.06-5.51c0.85-2.2,2.35-3.56,4.01-5.12
	c2.2-2.06,3.09-1.25,3.47,0.63c0.16,0.82,0.56,1.61,0.9,1.54c0.04,3.99,0.07,7.12,0.09,8.46c0.08,5.19,0,20.35,0,22.94
	c0,2.59,0.51,6.27,1.59,7.28H82.01c1.08-1.01,1.59-4.69,1.59-7.28C83.61,169.58,83.52,154.43,83.61,149.24z M94.65,180.54v2.09
	H81.09v-2.09H94.65z M140.66,183.89c0.01,0.01,0.02,0.02,0.02,0.02c0.59,0.49,1.23,1.21,1.41,1.9c0.13,0.44,0.19,0.78,0.37,1.02
	H77.61v-2.93H140.66z M174.08,188.49v3.44H75.69v-3.44H174.08z M176.09,193.6v3.6H73.68v-3.6H176.09z M177.61,198.28v-6.44h-2.01
	v-5.02h-2.01v-4.19h-2.38v-3.39c-3.4-2.1-2.76-5.77-2.84-11.18c-0.04-2.6-0.18-11.27-0.34-20.33c0.17,0.14,0.4,0.31,0.71,0.54
	c1.76,1.25,3.65,2.76,5.4,3.39c1.76,0.63,1.26-0.13,1.63-1.63c0.38-1.5,0.12-2.38,1.51-1c1.38,1.38,1.51,2.76,3.39,3.39
	c1.89,0.63,3.64,1.13,2.01-0.25c-1.63-1.39-1.14-3.14-2.14-4.64c0.88,1.01,1.64,1.76,3.77,1.51c2.14-0.25,0.79-0.66-0.62-1.89
	c-1-0.87-0.88-2.39-1.88-3.51c-1-1.13-4.65-5.27-6.4-4.77c-1.76,0.5-1.26,1.88-1.39,3.14c-1.37-0.88-4.65-1.85-3.51-3.39
	c1.76-2.39,2.31-2.49,0.76-4.9c-0.79-1.22-1.93-3.4-3.56-5.37c-0.04-1.68-0.06-3.07-0.08-4.06c0.16,0.11,0.39,0.19,0.75,0.27
	c1.25,0.25,1.13,0.36,1.89-1.13c0.87-1.76,0.71-2.22,1.93-3.52c0.6-0.65,1.39-2.1,1.36-2.3c-0.16-0.87-0.53-1.66-1.28-2.72
	c-1.19-1.68-2.9-3.6-4.71-5.18c0.01-1.84,0.01-3.2-0.02-3.7c-0.04-0.75,0.18-1.29,0.85-1.84c0.66-0.55,0.66-1.18,0.37-1.43
	c2.69,0,3.23-1.96,3.23-3.09c0-1.13-0.96-2.85-3.01-3.02c0.14-0.84,1-1.47,2.09-1.63h0.62v-0.04c0.01,0,0.02,0,0.03,0v-2.47h-0.03
	v-0.08c0,0-1.23-0.16-2.77-0.16c-0.53,0-0.72-0.1-0.47-0.5c0.25-0.4,1.67-1.57,4.62-1.57v-3.35c-2.57,0-4.86,0.58-5.75-1.13
	c-7.25-14.05-16.55-31.2-42.25-31.2s-34.71,16.9-41.97,30.95c-0.88,1.71-3.05,1.38-5.62,1.38v3.35c2.95,0,3.95,1.17,4.2,1.57
	c0.26,0.41,0.07,0.5-0.47,0.5c-1.54,0-2.35,0.16-2.35,0.16V95h0.68c1.09,0.16,1.97,0.79,2.11,1.63c-2.05,0.17-3.01,1.88-3.01,3.02
	c0,1.13,0.54,3.09,3.23,3.09c-0.3,0.25-0.3,0.88,0.38,1.43c0.66,0.54,0.87,1.08,0.83,1.84c-0.02,0.49-0.03,1.81-0.02,3.6
	c-1.86,1.6-3.61,3.55-4.83,5.27c-0.75,1.06-1.11,1.85-1.27,2.72c-0.04,0.2,0.76,1.65,1.36,2.3c1.22,1.29,1.06,1.76,1.93,3.52
	c0.76,1.5,0.63,1.38,1.89,1.13c0.44-0.09,0.7-0.2,0.86-0.36c-0.02,0.97-0.05,2.35-0.08,4.03c-1.69,2.01-2.86,4.25-3.66,5.5
	c-1.55,2.41-1.01,2.51,0.75,4.9c1.14,1.54-2.14,2.51-3.52,3.39c-0.12-1.26,0.37-2.64-1.38-3.14c-1.75-0.5-5.4,3.64-6.4,4.77
	c-1,1.13-0.88,2.64-1.88,3.51c-1.41,1.23-2.77,1.64-0.62,1.89c2.13,0.25,2.88-0.5,3.77-1.51c-1.01,1.51-0.51,3.26-2.14,4.64
	c-1.63,1.38,0.13,0.88,2.01,0.25c1.88-0.63,2.01-2.01,3.39-3.39c1.38-1.38,1.13-0.5,1.51,1c0.37,1.5-0.13,2.26,1.63,1.63
	c1.75-0.63,3.64-2.14,5.4-3.39c0.38-0.28,0.63-0.47,0.82-0.65c-0.15,9.11-0.3,17.83-0.33,20.43c-0.09,5.41,0.55,9.08-2.85,11.18
	v3.39h-3.21v4.19h-2.01v5.02h-2.01v6.2c-22.57-16.38-37.26-42.98-37.26-72.99c0-49.78,40.36-90.14,90.16-90.14
	c49.79,0,90.14,40.36,90.14,90.14C215.19,155.21,200.36,181.92,177.61,198.28z M175.48,140.57c-0.08-0.59,2.05,0.26,2.64,0.88
	c0.58,0.63,1.59,1.84,2.09,2.26c0.5,0.42,1.3,1.55,1.63,2.13c0.34,0.59,0.97,1.89,1.34,2.22c0.37,0.33,0.46,0.42-0.12,0.3
	c-0.34-0.08-1.46-0.68-1.93-1.18c-0.46-0.5-1.42-1.51-1.97-1.67c-0.54-0.17-0.58,0.25-0.63,0.54c-0.04,0.29,1.05,1.5,1.38,2.05
	c0.34,0.54,0.57,2.18,0.8,2.76c0.29,0.75,1.05,1.21,0.59,1.04c-0.31-0.11-0.92-0.17-1.46-0.97c-0.54-0.79-1.88-2.72-2.68-3.34
	c-0.79-0.63-2.13-1.17-2.56-1.3c-0.41-0.12-0.54-0.09-0.46-0.54c0.08-0.47,0.51-1.63,0.88-2.55
	C175.4,142.29,175.58,141.29,175.48,140.57z M175.02,148.06c0.2,0.26,0.33,0.38,0.08,0.71c-0.25,0.34-0.34,0.46-0.42,0.63
	c-0.09,0.16-0.54,0.21-0.67-0.46c-0.12-0.67-0.25-1.21-0.34-1.39c-0.12-0.26,0-0.29,0.38-0.12
	C174.43,147.61,174.81,147.82,175.02,148.06z M71.31,145.51c-0.55,0.16-1.51,1.17-1.97,1.67c-0.46,0.5-1.6,1.1-1.93,1.18
	c-0.58,0.12-0.5,0.04-0.12-0.3c0.38-0.33,1.01-1.63,1.34-2.22c0.33-0.58,1.13-1.71,1.63-2.13c0.5-0.42,1.51-1.63,2.09-2.26
	c0.59-0.63,2.72-1.47,2.63-0.88c-0.1,0.72,0.08,1.72,0.46,2.64c0.38,0.92,0.81,2.08,0.88,2.55c0.09,0.46-0.05,0.42-0.46,0.54
	c-0.43,0.13-1.76,0.67-2.55,1.3c-0.81,0.62-2.14,2.55-2.69,3.34c-0.54,0.8-1.14,0.85-1.47,0.97c-0.46,0.16,0.29-0.29,0.59-1.04
	c0.22-0.58,0.46-2.22,0.8-2.76c0.33-0.55,1.42-1.76,1.38-2.05C71.89,145.76,71.86,145.34,71.31,145.51z M75.45,148.06
	c0.21-0.25,0.59-0.46,0.97-0.63c0.38-0.17,0.5-0.13,0.38,0.12c-0.09,0.17-0.22,0.72-0.34,1.39c-0.12,0.67-0.58,0.62-0.67,0.46
	c-0.08-0.17-0.17-0.29-0.43-0.63C75.12,148.44,75.25,148.32,75.45,148.06z M98.88,70.86c0.58,0.56,0.47,1.58-0.24,2.42
	c-0.87,1.03-2.12,1.09-3.28,0.16c-0.33-0.27-0.91-0.85-0.98-1.67c-0.05-0.57,0.16-1.11,0.62-1.63c0.72-0.81,1.6-1.04,2.29-0.59
	c0.06,0.04,0.1,0.1,0.11,0.17c0.02,0.07-0.01,0.13-0.06,0.2l-0.44,0.51c-0.08,0.1-0.22,0.13-0.33,0.05
	c-0.19-0.12-0.57,0.01-0.82,0.3c-0.49,0.6-0.36,1.15,0.37,1.75c1.1,0.89,1.62,0.28,1.78,0.08c0.21-0.26,0.38-0.63,0.16-0.89
	c-0.08-0.09-0.08-0.22,0-0.31l0.43-0.53c0.05-0.05,0.11-0.08,0.19-0.08C98.75,70.79,98.83,70.81,98.88,70.86z M102.95,65.83
	c0.98,1.11,0.88,2.39-0.24,3.35c-1.13,0.95-2.48,0.84-3.42-0.23c-0.98-1.11-0.9-2.39,0.24-3.35
	C100.64,64.65,101.99,64.75,102.95,65.83z M102.05,66.6c-0.66-0.74-1.21-0.84-1.86-0.27c-0.65,0.56-0.65,1.11,0,1.85
	c0.66,0.74,1.21,0.81,1.87,0.26C102.69,67.89,102.69,67.32,102.05,66.6z M107.48,60.76c-0.03-0.05-0.08-0.1-0.14-0.11
	c-0.08-0.02-0.13-0.01-0.2,0.02l-0.51,0.27c-0.13,0.07-0.17,0.22-0.1,0.34l1.28,2.21l-2.98-1.44c-0.07-0.04-0.16-0.03-0.24,0.01
	l-0.79,0.43c-0.12,0.07-0.16,0.22-0.1,0.34l2.03,3.56c0.04,0.06,0.09,0.1,0.16,0.12c0.06,0.02,0.13,0.01,0.19-0.02l0.51-0.28
	c0.12-0.07,0.16-0.22,0.09-0.33l-1.33-2.33l3.11,1.51c0.08,0.04,0.17,0.04,0.24-0.01l0.72-0.39c0.11-0.06,0.17-0.21,0.09-0.33
	L107.48,60.76z M112.58,60.5c-0.19,0.02-0.36,0.04-0.54,0.04c-0.06,0.01-0.11,0.01-0.17,0.01c-0.41,0.02-0.47,0-0.53-0.17
	c-0.02-0.07-0.02-0.13,0.01-0.19c0.08-0.17,0.35-0.34,0.68-0.44c0.24-0.08,0.66-0.16,0.79,0.15c0.05,0.12,0.19,0.19,0.31,0.15
	l0.66-0.21c0.07-0.02,0.12-0.06,0.15-0.12c0.03-0.06,0.04-0.13,0.02-0.2c-0.26-0.77-1.12-1.05-2.19-0.71
	c-1.16,0.37-1.78,1.18-1.52,2.02c0.33,0.99,1.6,0.83,2.44,0.72l0.2-0.03c0.58-0.08,0.65,0.13,0.67,0.19
	c0.03,0.1,0.02,0.18-0.02,0.26c-0.09,0.18-0.36,0.35-0.74,0.47c-0.68,0.22-0.84-0.04-0.92-0.29c-0.05-0.13-0.19-0.2-0.33-0.15
	l-0.65,0.21c-0.13,0.04-0.2,0.17-0.16,0.3c0.27,0.92,1.12,1.26,2.33,0.87c0.43-0.13,1.2-0.46,1.52-1.08c0.16-0.31,0.18-0.65,0.08-1
	C114.35,60.32,113.37,60.42,112.58,60.5z M119.81,57.27c-0.06-0.04-0.12-0.06-0.19-0.05l-3.8,0.58c-0.14,0.02-0.23,0.15-0.2,0.28
	l0.07,0.48c0.01,0.07,0.05,0.12,0.09,0.16c0.06,0.04,0.14,0.05,0.2,0.04l1.35-0.23l0.51,3.34c0.01,0.07,0.05,0.12,0.09,0.16
	c0.06,0.04,0.13,0.05,0.18,0.04l0.65-0.09c0.14-0.02,0.24-0.15,0.22-0.28l-0.52-3.3l1.32-0.21c0.14-0.02,0.24-0.15,0.21-0.28
	l-0.08-0.48C119.9,57.36,119.87,57.3,119.81,57.27z M122.92,57.08c-0.05-0.04-0.11-0.07-0.18-0.06l-0.66,0.03
	c-0.14,0.01-0.24,0.12-0.24,0.26l0.22,4.08c0,0.07,0.03,0.13,0.08,0.17c0.05,0.05,0.12,0.07,0.18,0.06l0.65-0.03
	c0.14-0.01,0.25-0.13,0.24-0.26L123,57.26C123,57.18,122.97,57.12,122.92,57.08z M129.02,57.09l-3.85-0.16
	c-0.14,0-0.25,0.1-0.25,0.24l-0.03,0.49c0,0.06,0.03,0.13,0.07,0.17c0.04,0.05,0.11,0.07,0.18,0.08l1.32,0.05l-0.12,3.34
	c-0.01,0.07,0.02,0.13,0.07,0.18c0.04,0.05,0.11,0.08,0.17,0.08l0.66,0.02c0.14,0.01,0.26-0.09,0.26-0.23l0.14-3.36l1.34,0.07
	c0.14,0,0.25-0.1,0.26-0.24l0.03-0.48c0-0.06-0.03-0.13-0.07-0.17C129.15,57.12,129.08,57.09,129.02,57.09z M135.45,58.05
	l-0.65-0.12c-0.14-0.02-0.27,0.06-0.3,0.2l-0.48,2.56c-0.15,0.71-0.79,0.7-1.14,0.64c-0.36-0.07-0.95-0.29-0.83-1.01
	c0,0.01,0.49-2.55,0.49-2.55c0.02-0.07,0-0.13-0.04-0.18c-0.04-0.06-0.1-0.09-0.16-0.1l-0.65-0.12c-0.14-0.03-0.26,0.06-0.29,0.2
	l-0.47,2.42c-0.24,1.19,0.42,2.07,1.76,2.31c1.36,0.25,2.3-0.33,2.5-1.53l0.46-2.42c0.02-0.07-0.01-0.13-0.04-0.18
	C135.57,58.11,135.51,58.07,135.45,58.05z M141.87,60.43c0.03-0.07,0.02-0.14,0-0.19c-0.04-0.06-0.08-0.11-0.15-0.13l-3.6-1.33
	c-0.12-0.04-0.27,0.02-0.32,0.15l-0.18,0.46c-0.03,0.06-0.02,0.13,0.01,0.19c0.02,0.06,0.07,0.1,0.14,0.13l1.23,0.42l-1.19,3.17
	c-0.02,0.07-0.02,0.13,0.02,0.19c0.02,0.07,0.07,0.11,0.14,0.14l0.6,0.23c0.14,0.05,0.28-0.02,0.33-0.15l1.22-3.13l1.24,0.46
	c0.13,0.05,0.27-0.02,0.32-0.15L141.87,60.43z M144.62,61.58l-0.58-0.31c-0.06-0.03-0.12-0.04-0.19-0.02
	c-0.07,0.01-0.13,0.06-0.15,0.12l-2,3.59c-0.06,0.12-0.02,0.27,0.1,0.34l0.58,0.31c0.06,0.03,0.12,0.04,0.19,0.02
	c0.07-0.02,0.12-0.06,0.15-0.12l2-3.58C144.78,61.79,144.74,61.64,144.62,61.58z M149.42,67.64c-0.89,1.13-2.24,1.31-3.4,0.42
	c-1.18-0.89-1.35-2.17-0.44-3.33c0.89-1.12,2.23-1.31,3.41-0.42C150.16,65.2,150.34,66.48,149.42,67.64z M148.37,65.08
	c-0.69-0.52-1.23-0.43-1.84,0.37c-0.6,0.76-0.58,1.33,0.1,1.84c0.68,0.51,1.23,0.41,1.84-0.37
	C149.08,66.15,149.05,65.59,148.37,65.08z M155.03,70.15c-0.04-0.05-0.1-0.07-0.17-0.08c-0.07,0-0.14,0.02-0.18,0.07l-1.99,1.71
	l0.85-3.16c0.02-0.09,0-0.17-0.05-0.23l-0.61-0.66c-0.04-0.05-0.1-0.08-0.18-0.08c-0.06,0-0.13,0.01-0.18,0.06l-3.11,2.72
	c-0.1,0.08-0.11,0.25-0.02,0.34l0.39,0.43c0.05,0.05,0.1,0.08,0.17,0.08c0.07,0.01,0.13-0.01,0.18-0.06l2.02-1.83l-0.82,3.36
	c-0.02,0.08,0,0.16,0.05,0.23l0.55,0.59c0.04,0.05,0.1,0.08,0.17,0.08c0.07,0.01,0.13-0.02,0.18-0.06l3.11-2.72
	c0.1-0.09,0.12-0.25,0.02-0.35L155.03,70.15z M107.09,109.16c0.06-0.13,0.21-0.18,0.33-0.12l0.64,0.29
	c0.11,0.05,0.17,0.19,0.13,0.31c-0.08,0.18-0.12,0.45,0.25,0.62c0.38,0.17,0.54-0.04,0.63-0.2l1.27-2.75
	c0.05-0.12,0.21-0.18,0.33-0.12l0.6,0.27c0.13,0.06,0.18,0.21,0.13,0.33l-1.25,2.75c-0.38,0.78-1.23,1.04-2.14,0.62
	C107.05,110.74,106.7,109.95,107.09,109.16z M114.24,113.46c1.32,0.36,2.31-0.17,2.6-1.37c0,0.01,0.65-2.42,0.65-2.42
	c0.02-0.07,0.01-0.14-0.03-0.2c-0.03-0.06-0.08-0.1-0.15-0.11l-0.64-0.17c-0.14-0.04-0.27,0.04-0.3,0.17l-0.69,2.57
	c-0.21,0.71-0.84,0.65-1.19,0.56c-0.36-0.09-0.93-0.37-0.75-1.1c0,0.01,0.69-2.56,0.69-2.56c0.02-0.06,0.01-0.13-0.03-0.19
	c-0.03-0.06-0.08-0.1-0.14-0.12l-0.65-0.17c-0.13-0.03-0.27,0.04-0.3,0.18l-0.65,2.43C112.31,112.15,112.89,113.1,114.24,113.46z
	 M120.72,114.65c1.33,0.13,2.22-0.37,2.31-1.31c0.13-1.29-1.27-1.42-2.08-1.75c-0.06-0.02-0.11-0.04-0.16-0.06
	c-0.39-0.14-0.44-0.18-0.42-0.37c0.03-0.31,0.6-0.34,0.9-0.31c0.24,0.02,0.67,0.12,0.65,0.46c0,0.13,0.09,0.24,0.22,0.26l0.69,0.07
	c0.14,0.01,0.26-0.08,0.27-0.22c0.08-0.81-0.61-1.45-1.71-1.56c-1.26-0.12-2.14,0.38-2.22,1.28c-0.11,1.06,1.13,1.42,1.94,1.65
	l0.19,0.06c0.55,0.16,0.54,0.37,0.53,0.44c-0.04,0.41-0.63,0.42-0.98,0.37c-0.72-0.07-0.75-0.36-0.73-0.63
	c0-0.14-0.09-0.26-0.23-0.27l-0.69-0.07c-0.14-0.01-0.25,0.08-0.27,0.22C118.8,113.88,119.45,114.53,120.72,114.65z M124.66,111.1
	c0.05,0.05,0.12,0.07,0.18,0.07l1.33-0.02l0.15,3.39c0.01,0.07,0.04,0.13,0.08,0.18c0.05,0.04,0.12,0.07,0.18,0.07l0.66-0.02
	c0.13-0.01,0.24-0.12,0.24-0.27l-0.15-3.38l1.35-0.09c0.14-0.01,0.24-0.12,0.23-0.26l-0.02-0.5c0-0.06-0.03-0.12-0.08-0.17
	c-0.05-0.04-0.12-0.06-0.19-0.06l-3.84,0.16c-0.14,0.01-0.25,0.12-0.24,0.25l0.01,0.5C124.59,110.99,124.62,111.06,124.66,111.1z
	 M131.05,114.31c0.06,0.04,0.12,0.05,0.19,0.04l0.65-0.1c0.14-0.02,0.23-0.15,0.21-0.29l-0.64-4.12c0-0.07-0.04-0.13-0.09-0.16
	c-0.06-0.04-0.13-0.05-0.19-0.05l-0.65,0.1c-0.14,0.02-0.24,0.15-0.21,0.29l0.62,4.11C130.97,114.21,131,114.27,131.05,114.31z
	 M136.54,113.31c1.06-0.3,1.74-1.1,1.6-1.89c-0.02-0.07-0.05-0.13-0.12-0.17c-0.07-0.04-0.14-0.05-0.2-0.04l-0.67,0.19
	c-0.11,0.04-0.19,0.15-0.18,0.27c0.03,0.34-0.32,0.57-0.65,0.65c-0.3,0.09-0.56,0.07-0.76-0.05c-0.36-0.2-0.56-0.67-0.66-1.02
	c-0.38-1.38,0.45-1.61,0.72-1.68c0.37-0.1,0.76,0,0.84,0.22c0.05,0.12,0.18,0.18,0.3,0.15l0.67-0.19c0.07-0.02,0.13-0.06,0.16-0.12
	c0.04-0.07,0.04-0.15,0.01-0.21c-0.3-0.78-1.15-1.1-2.22-0.82c-0.67,0.17-1.17,0.52-1.46,1.02c-0.41,0.72-0.28,1.53-0.17,1.95
	C134.15,113,135.21,113.69,136.54,113.31z M140.41,111.67c0.06,0.13,0.2,0.18,0.33,0.12l2.76-1.27c0.06-0.03,0.1-0.08,0.12-0.14
	c0.02-0.06,0.02-0.13-0.01-0.19l-0.21-0.45c-0.07-0.13-0.21-0.18-0.34-0.12l-1.9,0.87l-0.38-0.79l1.76-0.8
	c0.05-0.03,0.11-0.08,0.13-0.15c0.03-0.05,0.02-0.13-0.01-0.19l-0.2-0.45c-0.07-0.12-0.21-0.19-0.34-0.12l-1.75,0.8l-0.34-0.72
	l1.86-0.86c0.06-0.02,0.11-0.08,0.13-0.14c0.02-0.06,0.02-0.13-0.01-0.19l-0.21-0.45c-0.06-0.12-0.2-0.18-0.33-0.12l-2.7,1.26
	c-0.06,0.03-0.11,0.08-0.13,0.14c-0.03,0.07-0.03,0.14,0,0.19L140.41,111.67z M125.02,39.93l1.94,11.14l-1.01,0.05l-1.2-8.18
	l-3.42,8.82l-4.19-8.45l-0.41,8.26l-1.01,0.05l0.91-11.28l4.58,9.37L125.02,39.93z M145.05,47.23l4.19,1.17l0.25-0.88l-4.19-1.18
	l0.62-2.2l4.18,1.18l0.25-0.89l-5.14-1.43l-2.9,10.38l5.14,1.43l0.25-0.88l-4.2-1.17L145.05,47.23z M94.33,56.93l-2.25-5.27
	l4.01-1.7l-0.36-0.85l-4.01,1.71l-0.89-2.1l4-1.71l-0.37-0.85l-4.9,2.09l4.23,9.91l4.91-2.09l-0.36-0.84L94.33,56.93z M54.07,148.94
	l1.55,4.07l-5.35,2.04l-1.54-4.07l-0.87,0.33l1.55,4.07l-2.14,0.8l-1.55-4.06l-0.86,0.33l1.9,4.98l10.07-3.83l-1.89-4.98
	L54.07,148.94z M55.29,100.2l-0.88-0.27l-1.31,4.15l-5.45-1.73l1.3-4.15l-0.87-0.28l-1.31,4.15l-2.18-0.68l1.31-4.15l-0.88-0.28
	l-1.6,5.09l10.27,3.24L55.29,100.2z M60.04,87.79l-4.91-2.96l2.26-3.72l-0.78-0.48l-2.25,3.73l-1.96-1.19l2.25-3.72l-0.79-0.48
	l-2.76,4.57l9.22,5.58l2.76-4.57l-0.79-0.47L60.04,87.79z M69.75,74.5l-4.13-3.97l3.01-3.14l-0.65-0.63l-3.02,3.14l-1.64-1.59
	l3.01-3.14l-0.66-0.63l-3.7,3.84l7.77,7.46L73.44,72l-0.66-0.64L69.75,74.5z M187.32,74.52l2.65,3.45l0.73-0.56l-2.66-3.45l1.82-1.4
	l2.66,3.45l0.72-0.56l-3.26-4.23l-8.53,6.58l3.26,4.23l0.73-0.56l-2.66-3.46L187.32,74.52z M196.54,88.88l1.87,3.93l0.82-0.39
	l-1.87-3.94l2.06-0.98l1.87,3.93l0.83-0.4l-2.29-4.81l-9.73,4.63l2.3,4.81l0.82-0.39l-1.87-3.93L196.54,88.88z M198.25,120.96
	l3.48-1.74l-0.44-4.38l-3.77-1.06l-0.11-0.98l11.62,3.56l-10.67,5.65L198.25,120.96z M202.15,115.09l0.38,3.73l4.48-2.3
	L202.15,115.09z M197.43,136.93l9.84,7.12l-11.93,1.9l0.24-1.04l3.86-0.52l0.99-4.29l-3.23-2.21L197.43,136.93z M201.19,140.62
	l-0.85,3.65l4.98-0.73L201.19,140.62z M180.59,61.53l-7.15,8.07l0.73,0.65l7.15-8.07L180.59,61.53z M168.78,58.95
	c-0.78,1.37-1.92,2.24-3.48,2.64c0.21,1.16,0.38,1.43,0.55,1.52c0.22,0.13,0.33,0.19,0.33,0.19l-0.49,0.87l-0.44-0.24
	c-0.44-0.25-0.64-1.46-0.83-2.15c-1.26,0.07-2.37-0.19-3.5-0.82c-1.31-0.74-2.25-1.93-2.67-3.37c-0.43-1.47-0.25-2.99,0.5-4.31
	c0.74-1.32,1.95-2.25,3.42-2.65c1.48-0.4,3.02-0.18,4.36,0.57c1.35,0.76,2.32,1.99,2.75,3.44
	C169.71,56.12,169.53,57.62,168.78,58.95z M166.1,51.95c-2.27-1.28-5.13-0.47-6.44,1.85c-1.3,2.31-0.55,5.16,1.78,6.47
	c0.92,0.52,1.97,0.71,2.79,0.55l-0.68-2.24l1.04,0.59l0.48,1.54c1.21-0.41,2.18-1.17,2.8-2.28
	C169.18,56.14,168.39,53.24,166.1,51.95z M41.86,125.36c-1.03-1.13-1.52-2.55-1.46-4.13c0.07-1.58,0.69-2.97,1.81-4.01
	c1.11-1.06,2.58-1.58,4.1-1.52c1.52,0.07,2.91,0.73,3.91,1.86c1.03,1.14,1.55,2.6,1.49,4.15c-0.07,1.56-0.72,2.96-1.83,4
	c-1.12,1.03-2.56,1.57-4.06,1.51C44.28,127.15,42.89,126.51,41.86,125.36z M41.27,121.26c-0.11,2.61,1.91,4.8,4.59,4.93
	c2.65,0.11,4.86-1.88,4.98-4.51c0.11-2.64-1.92-4.82-4.58-4.93C43.6,116.63,41.38,118.64,41.27,121.26z M52.03,134.67l-11.11,1.23
	c-0.09-0.35-0.09-0.82-0.15-1.22c-0.33-3.17,1.72-5.87,5.02-6.22c3.37-0.35,5.79,1.75,6.13,4.97
	C51.97,133.81,52.06,134.27,52.03,134.67z M51.15,133.87c-0.27-2.57-2.38-4.65-5.24-4.36c-2.77,0.3-4.53,2.55-4.23,5.36
	L51.15,133.87z M196.67,110.3c0.08,0.37,0.2,0.73,0.36,1.1l0.95-0.11c-0.2-0.39-0.34-0.8-0.44-1.23c-0.57-2.53,0.85-4.87,3.66-5.49
	c2.71-0.6,5.07,0.81,5.67,3.56c0.08,0.31,0.11,0.61,0.12,0.91l0.86-0.05c-0.02-0.37-0.06-0.75-0.15-1.14
	c-0.69-3.12-3.49-5.03-6.73-4.31C197.66,104.28,195.97,107.14,196.67,110.3z M46.4,113.66c3.32,0.67,6.03-1.26,6.67-4.44
	c0.08-0.36,0.11-0.76,0.12-1.15l-0.91-0.28c0.02,0.43-0.02,0.87-0.1,1.3c-0.51,2.54-2.75,4.1-5.57,3.54
	c-2.73-0.55-4.31-2.78-3.76-5.55c0.07-0.31,0.15-0.61,0.26-0.88l-0.8-0.31c-0.14,0.35-0.24,0.71-0.32,1.1
	C41.37,110.14,43.15,113.01,46.4,113.66z M159.63,47.96l-0.98-0.4l-3.88,3.05l-0.65-4.87l-1.02-0.41l0.85,5.84l-5.16,4.04l0.99,0.4
	l4.34-3.4l0.77,5.45l1.01,0.4l-0.91-6.5L159.63,47.96z M110.53,50.64l-4.7-8.02l-1.11,0.21l6.24,10.05l2.18-11.68l-1.05,0.2
	L110.53,50.64z M178.39,59.68l-7.89,5.02l2.82-8.87l-0.9-0.68l-3.32,11.36l10.15-6.18L178.39,59.68z M209.15,120.82l-11.06,4.22
	l11.06,4.36v-1.06l-8.77-3.28l8.77-3.09V120.82z M72.92,59.35l-0.61-0.69l-5.23,4.52l0.6,0.69l2.24-1.93l6.44,7.45l0.73-0.63
	l-6.43-7.45L72.92,59.35z M44.55,148.18l9.47-2.71l-0.27-0.94l-9.48,2.71l-0.81-2.86l-0.89,0.26l1.9,6.65l0.88-0.26L44.55,148.18z
	 M206.5,131.01c-1.51-0.16-2.3,0.76-3.36,2.35c-0.79,1.19-1.36,1.92-2.69,1.77c-1.44-0.15-2.17-1.04-2.03-2.39
	c0.11-1.05,0.8-1.83,1.9-2.02l-0.36-0.88c-1.44,0.42-2.24,1.35-2.4,2.76c-0.2,1.93,0.89,3.26,2.8,3.46
	c1.62,0.17,2.38-0.47,3.41-1.96c0.9-1.31,1.31-2.25,2.61-2.12c1.05,0.11,1.65,0.84,1.54,1.9c-0.08,0.79-0.47,1.35-1.12,1.59
	l0.37,0.79c0.96-0.4,1.51-1.14,1.62-2.22C208.94,132.41,208.01,131.17,206.5,131.01z M202.75,150.07c-1.42-0.51-2.41,0.2-3.82,1.5
	c-1.05,0.98-1.78,1.54-3.02,1.09c-1.37-0.48-1.87-1.52-1.42-2.81c0.36-0.99,1.21-1.58,2.32-1.51l-0.14-0.94
	c-1.51,0.07-2.51,0.78-2.98,2.12c-0.65,1.84,0.09,3.38,1.91,4.03c1.53,0.54,2.42,0.1,3.77-1.1c1.19-1.07,1.8-1.88,3.04-1.45
	c1,0.36,1.41,1.22,1.05,2.22c-0.26,0.74-0.78,1.19-1.46,1.27l0.17,0.85c1.02-0.16,1.74-0.75,2.09-1.77
	C204.81,152,204.18,150.58,202.75,150.07z M181.62,70.49l-1.03,6.35l-0.82-0.85l1.09-6.29l-0.4-0.42l-3.71,3.56l-0.68-0.71
	l7.76-7.47l1.38,1.42c1.61,1.68,1.72,3.19,0.3,4.56C184.28,71.81,182.81,71.74,181.62,70.49z M181.02,68.72l0.68,0.71
	c1.16,1.2,1.98,1.49,3.08,0.43c1.12-1.07,0.97-1.94-0.21-3.19l-0.69-0.71L181.02,68.72z M191.54,83.31l-2.3,6.01l-0.64-1.01
	l2.35-5.94l-0.3-0.5l-4.36,2.73l-0.52-0.83l9.13-5.72l1.04,1.67c1.25,1.98,1.04,3.48-0.63,4.52
	C193.88,85.15,192.46,84.78,191.54,83.31z M191.33,81.45l0.52,0.83c0.89,1.41,1.63,1.87,2.94,1.05c1.32-0.82,1.35-1.71,0.43-3.16
	l-0.52-0.83L191.33,81.45z M101.57,49.59l5.22,3.76l-1.13,0.36l-5.13-3.79l-0.56,0.18l1.52,4.91l-0.94,0.29L97.35,45l1.89-0.58
	c2.22-0.7,3.62-0.12,4.2,1.77C103.94,47.8,103.22,49.08,101.57,49.59z M100.65,49.04c1.59-0.49,2.22-1.1,1.77-2.56
	c-0.47-1.48-1.32-1.74-2.96-1.23l-0.93,0.29l1.19,3.81L100.65,49.04z M86.39,56.06l5.89,2.58l-1.04,0.59l-5.82-2.64l-0.52,0.3
	l2.52,4.47l-0.86,0.48l-5.27-9.39l1.72-0.97c2.04-1.14,3.52-0.87,4.49,0.85C88.34,53.81,87.9,55.21,86.39,56.06z M86.58,52.83
	c-0.76-1.35-1.64-1.43-3.14-0.58l-0.85,0.47l1.95,3.47l0.85-0.48C86.84,54.89,87.33,54.16,86.58,52.83z M52.77,92.81l6.27-1.47
	l-0.49,1.09l-6.22,1.39l-0.23,0.53l4.7,2.07l-0.39,0.9l-9.86-4.34l0.8-1.81c0.94-2.14,2.29-2.81,4.1-2.02
	C52.98,89.84,53.47,91.23,52.77,92.81z M50.98,90.12c-1.42-0.63-2.17-0.16-2.86,1.42l-0.39,0.9l3.63,1.6l0.4-0.89
	C52.43,91.61,52.39,90.73,50.98,90.12z M90.89,131.33c-0.79-1.4-0.79-3.1-1.09-4.6c0.09-0.3,0.4-0.5,0.79-0.4c0.4,0.3,0.6,0.8,1,1.1
	c0.81-0.6-0.5-2.6,1.1-2.6c0.3,1.4,2.2,2.89,1,4.2c-0.36,0.34-0.3-1.1-0.8-1.5l-0.4,2.3c-0.7,0.2-0.7-0.8-1.2-1.1
	C90.49,129.43,92.39,131.03,90.89,131.33z M91.69,111.14c-0.1,0.6-0.8,0.3-1.2,0.7c0,0.3,0,0.6,0.3,0.79c0.3,0.11,0.5,0.11,0.79,0
	c0.71-0.3,1.4-0.99,1.1-1.79c-0.2-1.1-1.4-1.2-2.1-1.7l0.6-0.6c0.1-0.3,0.1-0.7-0.3-0.8c-0.7,0.2-1.2,0.9-1.31,1.6
	C89.58,110.74,91.49,110.04,91.69,111.14z M86.69,132.23c-0.3-1-0.4-2.31,0-3.3c0.5-0.71,1.29-1.01,1.89-0.31
	c0.91,1.5,1.61,4.14,0,4.8C88.01,133.67,86.89,133.03,86.69,132.23z M87.39,131.33c0.06,0.44,0.4,0.99,0.81,0.99
	c0.6-0.39,0.49-1.31,0.39-1.6c-0.09-0.28-0.2-1.1-0.8-1C87.08,130.23,87.33,130.89,87.39,131.33z M89.01,114.09
	c-0.33-0.67-0.81-2.75-1.22-4.15c-0.3,0.1-0.62,0.4-0.82,0.59c0.39,1.6,0.82,3.02,1.3,4.1C88.56,114.53,89.01,114.39,89.01,114.09z
	 M84.19,117.73c0.6-0.6,0.1-1.19,0-1.89c0.6-0.7,0.8,0.7,1.51,0.6l0.19-0.1c-0.08-1.75-0.4-3.3-0.89-4.8
	c-1.79,0.55,0.04,1.73-0.41,2.69c0,0-0.94-1.06-1.47-1.47c-0.08-0.06-0.43,0.15-0.41,0.36c0.03,0.63,0.78,1.41,0.48,2.02l-1.6-1.21
	c-0.3,0.1-0.4,0.5-0.4,0.8l2.8,3.1L84.19,117.73z M84.19,137.32c-0.8-1.29-1.56-2.67-1.26-4.27c0.3-0.6,0.66-1.23,1.36-1.42
	c0.8,0,1.3,0.6,1.6,1.29C86.49,134.73,85.59,136.23,84.19,137.32z M84.49,135.23c0.7-0.2,0.6-1.3,0.2-1.9c-0.2-0.1-0.5,0-0.71,0.2
	C83.8,134.22,84.29,134.63,84.49,135.23z M169.76,115.73c-0.11-0.79-0.7-1.39-1.41-1.69l-0.29,0.71c-0.19,1.16-1.58,3.1-0.7,3.69
	c0.27,0.19,0.4-0.5,0.7-0.7c1,0.31,0.4,2.22,1.13,2.32c0.47-0.05,0.01-1.67-0.08-2.47C169.66,117.23,169.96,116.54,169.76,115.73z
	 M168.86,116.63c-0.29,0.09-0.56-0.12-0.56-0.12c0-0.27,0.3-1.06,0.49-1.16C169.16,115.5,169.14,116.54,168.86,116.63z
	 M168.76,134.63c0.56,0.67-0.52,2.94-0.64,3.22c-0.12,0.29-0.46,0.78-0.46,0.78c-1-0.5-0.3-1.98-0.9-2.78
	c-0.1,0.2-0.42,0.78-0.52,0.88c-0.41,0-0.48-0.31-0.59-0.6l1.41-3.8c1.41,0.4,0.08,2.63,0.87,3.43
	C168.14,135.56,168.26,134.22,168.76,134.63z M165.46,129.83c-0.5-0.42-1.07-0.14-1.5,0.3c-0.44,0.43-0.9,2.3-0.6,3.5
	c0.1,0.6,0.6,1.36,1.09,1.3c0.51-0.07,1.05-0.59,1.3-0.9C166.01,133.71,166.56,130.74,165.46,129.83z M164.66,133.43
	c-0.4,0.2-0.6-0.3-0.6-0.7c0.1-0.7,0-1.4,0.6-1.9c0.49-0.1,0.6,0.4,0.6,0.7C165.15,132.23,165.26,132.93,164.66,133.43z
	 M164.96,112.04c-0.1-0.63-0.81-1.9-1.8-1.9l-1.1,4c0,0-0.08,0.24,0.2,0.39c0.29,0.16,1.08,0.45,1.8,0
	C164.77,114.1,165.05,112.67,164.96,112.04z M163.46,113.83l-0.36-0.06c0.15-0.7,0.23-1.66,0.53-2.26
	C164.53,112.17,164.06,113.44,163.46,113.83z M162.36,127.93l0.6,0.5c-0.4,1.49-0.29,3.08-1,4.6c-0.15-0.03-0.53-0.11-0.49-0.41
	C161.84,130.48,162.09,129.41,162.36,127.93z M160.36,108.64c-0.8,0.9-1.1,2.3-1.01,3.5c0.1,0.6,0.41,1.51,1.21,1.3
	c1.79-0.7,1.57-3.78,1.09-4.6C161.46,108.5,160.76,108.24,160.36,108.64z M161.06,111.64c-0.2,0.32-0.4,0.5-0.6,0.5
	c-0.5-0.2-0.3-0.95-0.2-1.4c0.09-0.44,0.36-1.29,0.8-1.2C161.5,109.64,161.25,111.32,161.06,111.64z M161.66,128.03
	c-0.4-0.19-1.09-0.19-1,0.4l-0.6,3c-0.37-0.06-0.5-0.3-0.61-0.6l0.61-3.8c-0.4-0.4-0.81-0.91-0.5-1.29c0.31-0.38,1.7,0.9,2.2,1.7
	L161.66,128.03z M158.76,107.04c1.21,1.3-0.2,3.1-0.4,4.6l-0.1,0.3c-1.41-0.5,0.3-1.8-0.11-2.9c-0.49,0.3-1,1.2-1.39,1.9
	c-0.8-0.4-0.21-1.7-0.21-2.5l-0.09-0.21l-0.99,1.8c-1.2-0.78,0.47-2.91,0.76-3.38c0.28-0.47,0.33-1.02,0.93-0.92
	c0.5,0.5,0,1.6,0.4,2.2C158.06,107.84,158.16,107.04,158.76,107.04z M157.66,124.24c-1,1.2-1.5,2.9-1.5,4.39
	c0.69,0.5,0.39-0.7,1-0.7c0.9,0.2,0.38,1.78,0.5,1.9c0.12,0.12,0.7,0.25,0.7,0.25s0.23-2.54,0.3-3.35
	C158.73,125.92,159.06,124.64,157.66,124.24z M157.37,126.53l0.1-0.49c0.25-0.61,0.33,0.6,0.33,0.8
	C157.59,126.93,157.37,126.63,157.37,126.53z M166.79,114.23c0.25,0.31,0.07,0.56-0.07,0.75c-0.12,0.19-0.41-0.18-0.6-0.24
	c-0.18-0.07-0.22,0.28-0.27,0.5c-0.07,0.22-0.16,0.44-0.07,0.63c0.1,0.19,0.29,0.53,0.44,0.66c0.15,0.12-0.03,0.28-0.06,0.4
	c-0.04,0.13-0.19,0.15-0.28,0.13c-0.1-0.03-0.54-0.44-0.81-0.66c-0.29-0.22-0.19-0.53-0.13-0.75c0.07-0.22,0.7-2.83,1.19-3.92
	c0.51,0.27,1.1,0.94,1.23,1.13c0.13,0.19-0.06,0.41-0.16,0.57c-0.16-0.06-0.47,0-0.63-0.1c-0.15-0.09-0.25,0.22-0.19,0.34
	C166.45,113.79,166.54,113.92,166.79,114.23z M147.52,161.57c0.32,0.25,0.22,1.12,0.16,1.5c-0.14-0.45-0.41-0.67-0.35-1.05
	C147.39,161.64,147.2,161.57,147.52,161.57z M126.6,23.42c-1.09-0.26-1.57-0.24-2.56-1.58l-1.88,2.18c1.35,1.51,2.58,2.52,4.4,2.5
	c2.6-0.04,4.09-1.23,4.63-3.42c0.72-2.94-1.27-4.65-3.13-6.11c-0.97-0.76-1.49-0.82-1.51-1.83c-0.01-0.94,0.5-0.87,1.38-0.84
	c0.57,0.02,1.8,0.5,2.39,0.97l0.08-2.75c-0.71-0.55-2.24-1.11-3.07-1.14c-2.71-0.08-3.85,1.26-3.9,2.86
	c-0.06,1.94,0.53,2.82,2.24,4.54c1.38,1.39,1.52,1.44,2.34,2.24C129.13,22.13,127.88,23.72,126.6,23.42z M39.01,180.52
	c-2.79,1.18-2.95,3.82-3,6.17c-0.03,1.23,0.23,1.68-0.58,2.31c-0.75,0.56-1,0.11-1.5-0.59c-0.34-0.47-0.69-1.74-0.66-2.5l-2.25,1.6
	c-0.02,0.9,0.46,2.45,0.94,3.13c1.56,2.22,3.32,2.33,4.62,1.4c1.58-1.11,1.93-2.12,2.29-4.53c0.29-1.92,0.23-2.08,0.39-3.2
	c0.21-1.54,2.23-1.51,2.77-0.29c0.44,1.01,0.74,1.39,0.27,2.98l2.87,0.19c0.39-1.98,0.46-3.57-0.65-5.02
	C42.92,180.12,41.08,179.64,39.01,180.52z M194.21,49.33l-2.85,0.31c-0.04,2.03,0.16,3.6,1.52,4.82c1.93,1.75,3.83,1.89,5.72,0.65
	c2.53-1.66,2.23-4.28,1.86-6.59c-0.18-1.22-0.53-1.62,0.16-2.37c0.64-0.69,0.96-0.3,1.58,0.31c0.41,0.41,0.98,1.6,1.09,2.35
	l1.93-1.97c-0.14-0.88-0.88-2.34-1.47-2.92c-1.93-1.91-3.68-1.71-4.8-0.56c-1.36,1.37-1.52,2.42-1.46,4.85
	c0.06,1.95,0.14,2.08,0.19,3.23c0.07,1.55-1.93,1.87-2.67,0.78C194.39,51.3,194.03,50.98,194.21,49.33z M200.54,187.34l2.6,1.9
	l2.66-3.6l2.76,2.03l-2.51,3.41l2.47,1.83l2.51-3.42l1.19,0.88l-2.66,3.61l2.55,1.87l4.69-6.38l-11.57-8.51L200.54,187.34z
	 M219.76,99.41l3.07-0.98l-1.36-4.27l3.27-1.04l1.29,4.03l2.92-0.94l-1.29-4.03l1.42-0.45l1.37,4.27l3-0.96l-2.41-7.54l-13.68,4.37
	L219.76,99.41z M101.73,28.81l-0.9-3.08l-4.31,1.24l-0.95-3.3l4.07-1.17l-0.85-2.95l-4.07,1.17l-0.41-1.43l4.31-1.24l-0.88-3.03
	l-7.6,2.19L94.13,31L101.73,28.81z M156.12,31.17l10.28-11.3l3.16,1.29l-0.63,15.27l-3.02-1.25l0.16-3.25l-4.69-1.93l-2.19,2.42
	L156.12,31.17z M163.39,27.81l2.9,1.19l0.09-4.54L163.39,27.81z M214.69,164.85l10.36,11.23l-1.56,3.02l-15.15-1.95l1.49-2.9
	l3.23,0.44l2.33-4.5l-2.22-2.4L214.69,164.85z M215.97,175.15l4.51,0.49l-3.08-3.27L215.97,175.15z M147.91,29.02l3.42,0.88
	l2.73-10.62l2.8,0.72l0.85-3.29l-8.99-2.31l-0.85,3.28l2.78,0.72L147.91,29.02z M176.47,40.87l5.56-9.46l2.5,1.47l1.71-2.93
	l-8.01-4.7l-1.72,2.92l2.48,1.46l-5.56,9.46L176.47,40.87z M141.81,13.18l-3.53-0.47l-1.9,14.24l3.53,0.47L141.81,13.18z
	 M27.4,144.11l-14.01,3.18l0.79,3.48l14.01-3.18L27.4,144.11z M36.47,170.18l-12.58,6.91l1.72,3.13l12.58-6.92L36.47,170.18z
	 M26.08,128.99l-3.34,0.3l0.4,4.36l-10.97,1l0.32,3.51l14.31-1.3L26.08,128.99z M26.46,115.3l-3.35-0.16l-0.2,4.37l-10.99-0.52
	l-0.18,3.51l14.35,0.69L26.46,115.3z M186.05,47.64l8.68-11.44l-2.83-2.15l-8.68,11.44L186.05,47.64z M75.17,39.21l-7.46-12.27
	l-3.05,1.85l7.47,12.27L75.17,39.21z M216.69,159.9l13.56,4.73l1.17-3.36l-13.56-4.73L216.69,159.9z M86.07,34.02l0.02-15.73
	l-3.41,1.52l-0.03,9.82l-7.32-6.54l-3.42,1.52l11.72,10.5L86.07,34.02z M51.47,58.54l-6.59-14.28l-2.46,2.81l4.1,8.92l-9.39-2.86
	l-2.46,2.82l15.03,4.6L51.47,58.54z M28.17,103.81L15.34,94.7l-0.73,3.67l8,5.7l-9.57,2.19l-0.73,3.67l15.34-3.5L28.17,103.81z
	 M31.28,93.07l-5.6-3.46l7.25-0.8l-4.82-5.48l6.47,1.23l1.19-3.08l-14.11-3.34l-1.26,3.25l6.03,4.9l-7.75-0.48l-1.27,3.25
	l12.67,7.05L31.28,93.07z M60.76,49.77l-4.17-5.94l8.73,2.27l2.62-2.12L58.93,32.8l-2.63,2.12l4.17,5.94l-8.73-2.26l-2.65,2.13
	l9.02,11.18L60.76,49.77z M213.01,82.52c0.71,1.46,1.67,2.54,2.8,3.22c0.4,0.24,1.9-0.72,4.71-2.09c0.25-0.12,0.5-0.24,0.76-0.39
	l-1.54-3.16l-3.65,1.87c-0.16-0.22-0.31-0.47-0.43-0.73c-0.96-1.96-0.08-3.93,2.39-5.13c2.5-1.22,4.56-0.65,5.51,1.29
	c0.52,1.07,1.22,3,0.19,4.53l3.58-1.71c0.18-1.35-0.13-2.88-0.81-4.26c-1.83-3.75-6-5.14-9.93-3.24c-1.82,0.89-3.27,2.41-3.95,4.18
	C211.92,78.77,212.06,80.57,213.01,82.52z M229.13,140.23c-1.98-0.42-4.06-0.1-5.68,0.87c-1.72,1.04-2.72,2.55-3.17,4.67
	c-0.33,1.59-0.24,3.03,0.24,4.26c0.16,0.42,1.94,0.59,5,1.23c0.28,0.06,0.56,0.12,0.86,0.16l0.73-3.44l-4.03-0.76
	c0-0.27,0.04-0.55,0.1-0.85c0.45-2.14,2.35-3.16,5.04-2.57c2.71,0.56,4,2.27,3.54,4.38c-0.24,1.17-0.87,3.13-2.63,3.7l3.88,0.84
	c0.97-0.94,1.65-2.35,1.97-3.85C235.85,144.79,233.39,141.13,229.13,140.23z M28.11,167.09c1.9-0.7,3.5-2.07,4.35-3.76
	c0.91-1.79,0.95-3.6,0.2-5.63c-0.56-1.53-1.4-2.69-2.46-3.49c-0.36-0.27-1.96,0.53-4.9,1.61c-0.26,0.09-0.52,0.2-0.79,0.31
	l1.21,3.31l3.82-1.5c0.14,0.23,0.27,0.49,0.37,0.77c0.75,2.05-0.31,3.92-2.9,4.87c-2.6,0.96-4.6,0.2-5.34-1.84
	c-0.42-1.13-0.92-3.11,0.27-4.53l-3.74,1.34c-0.32,1.32-0.15,2.87,0.38,4.32C20,166.79,24.01,168.59,28.11,167.09z M233.76,105.33
	c1.59,1.25,2.65,3.09,2.91,5.08c0.27,2-0.27,4.07-1.47,5.69c-1.22,1.64-2.96,2.65-4.97,2.91c-2.03,0.27-3.99-0.26-5.58-1.5
	c-1.6-1.27-2.64-3.11-2.9-5.11c-0.24-1.73,0.15-3.55,1.06-5.07c1.19-1.98,3.1-3.23,5.39-3.53
	C230.22,103.53,232.16,104.06,233.76,105.33z M228.71,107.68c-2.36,0.31-3.99,2.02-3.69,4.28c0.3,2.21,2.35,3.48,4.67,3.16
	c2.32-0.31,3.98-2.11,3.68-4.28C233.09,108.66,231.03,107.37,228.71,107.68z M107.46,27.72l-1.93-14.22c0,0,3.45-0.47,3.53-0.48
	c1.6-0.22,3.15-0.28,4.25,0.3c1.23,0.64,1.61,1.45,1.84,2.91c0.2,1.26-0.24,2.66-1.27,3.92c-0.04,0.05-0.1,0.12-0.17,0.18l5.63,6
	l-3.09,0.41l-4.77-4.88c-0.75,0.42-1.38,0.74-1.38,0.74l0.65,4.7L107.46,27.72z M109.22,16.12l0.45,3.35l0.66-0.09
	c1.51-0.97,2.07-1.62,1.95-2.5c-0.11-0.87-0.96-1.04-2.37-0.85L109.22,16.12z M223.54,122.93l14.36,0.31c0,0-0.07,3.49-0.08,3.56
	c-0.03,1.63-0.21,3.16-0.95,4.16c-0.84,1.12-1.69,1.36-3.17,1.36c-1.27,0-2.58-0.65-3.68-1.87c-0.04-0.05-0.09-0.11-0.15-0.18
	l-6.79,4.63l0.07-3.12l5.57-3.96c-0.31-0.81-0.52-1.48-0.52-1.48l-4.74-0.1L223.54,122.93z M231.35,127.07
	c0.72,1.64,1.28,2.3,2.16,2.33c0.89,0.03,1.18-0.79,1.22-2.22l0.01-0.71l-3.37-0.07L231.35,127.07z M35.09,71.83
	c1.57,0,2.84-1.27,2.84-2.84c0-1.57-1.27-2.84-2.84-2.84c-1.57,0-2.84,1.27-2.84,2.84C32.25,70.56,33.52,71.83,35.09,71.83z
	 M52.8,199.3c-1.54-0.3-3.04,0.69-3.34,2.24c-0.31,1.53,0.69,3.03,2.22,3.33c1.55,0.3,3.04-0.69,3.34-2.22
	C55.33,201.1,54.33,199.6,52.8,199.3z M196.46,200.83c-1.5-0.44-3.08,0.44-3.51,1.94c-0.44,1.51,0.44,3.08,1.94,3.51
	c1.51,0.43,3.08-0.43,3.52-1.95C198.85,202.82,197.97,201.26,196.46,200.83z M207.46,61.22c-0.58,1.45,0.12,3.11,1.58,3.69
	c1.45,0.58,3.11-0.13,3.7-1.58c0.57-1.46-0.13-3.12-1.58-3.7C209.7,59.05,208.04,59.75,207.46,61.22z M106.54,221.19
	c-1.29,0.44-2.94,1.36-4,2.23c-0.26,0.22-0.16,0.31-0.03,0.38c0.14,0.06,0.69,0.05,0.83,0.09c0.14,0.04,0.1,0.12,0.07,0.34
	c-0.29,2.2-1.53,8.72-1.7,9.44c-0.17,0.73-0.12,0.9-0.3,1.03c-0.17,0.15-0.47,0.36-0.58,0.46c-0.1,0.1-0.17,0.19,0.08,0.24
	c0.3,0.06,3.67,0.58,3.94,0.61c0.27,0.03,0.21,0.03,0.14-0.14c-0.06-0.17-0.45-0.55-0.55-0.68c-0.11-0.14-0.08-0.24-0.05-0.44
	c0.04-0.22,1.46-9.35,1.6-10.1c0.14-0.76,0.66-3.03,0.7-3.23C106.72,221.23,107.06,221.01,106.54,221.19z M120.72,222.91
	c-0.68-0.2-2.3-0.46-2.78-0.52c-0.48-0.06-3.67-0.21-4.94-0.13c-0.2,0.42-1.18,2.89-1.28,3.07c-0.1,0.17-0.03,0.19,0.21,0
	c0.81-0.62,2.67-0.46,3.39-0.33c0.73,0.12,1,0.3,1.14,0.33c0.14,0.03,0.14,0.02,0.03,0.24c-0.14,0.28-3.34,5.18-3.33,8.02
	c0.03,2.85,1.51,3.93,3.26,3.88c2.5-0.06,3.23-2.29,3.43-3.43c0.19-1.08-0.62-0.26-0.96,0.08c-0.34,0.36-0.41,0.47-1.17,0.47
	c-0.75,0-1.34-0.61-1.36-2.15c-0.03-3.3,2.01-6.13,4.45-8.65c0.21-0.18,0.24-0.25,0.24-0.59
	C121.07,222.85,120.96,222.99,120.72,222.91z M135.42,232.95c0.03,2.53-1.7,5.6-5.81,5.64c-4.12,0.03-4.96-2.87-4.92-5.04
	c0.05-2.19,3.32-4.32,3.55-4.56c-0.17-0.34-2.63-1.3-2.51-2.96c-0.03-2.7,2.98-3.52,4.15-3.53c1.23-0.02,3.85,1.3,3.86,3.15
	c0.02,1.32-0.76,2.31-1.52,3.17C133.76,229.76,135.4,231.2,135.42,232.95z M129.91,227.63c0,0,1.42-1.06,1.1-1.99
	c0-0.59-0.66-1.16-1.52-1.16c-0.85,0.01-1.3,0.84-1.29,1.45C128.2,226.56,129.1,227.3,129.91,227.63z M132.55,233.49
	c-0.01-1-1.19-2.15-2.15-2.97c-1.48,0.91-3.07,2.22-3.06,3.63c0.01,1.41,1.16,2.35,2.25,2.31
	C131.06,236.41,132.56,234.47,132.55,233.49z M145.44,226.06c-1.36,0.02-1.26,0.35-1.88,0.36c-0.62,0.01-0.92-0.07-0.79-0.75
	c0.23-1.17,0.2-1.44,0.67-1.52c0.48-0.08,2.97-1.12,3.51-1.74c0.55-0.63,0.92-1.28,0.98-1.63c0.07-0.35-0.04-0.27-0.38-0.2
	c-0.34,0.06-2.56,0.57-3.62,0.78c-1.06,0.21-2.22,0.61-2.4,0.61c-0.17,0-0.17,0.14-0.2,0.34c-0.03,0.21-0.87,5.66-0.97,6.08
	c-0.11,0.41,0.24,0.79,0.62,0.78c0.37,0,1.36-1.17,3.31-1.19c1.95-0.02,2.9,2.17,2.9,2.81c0.03,2.24-1.95,3.9-3.73,3.91
	c-1.64,0.02-3.03-0.76-3.44-1.1c-0.43-0.35-0.83-0.23-0.37,0.41c0.45,0.65,2.32,2.63,5.16,2.6c2.85-0.03,5.69-2.66,5.65-5.44
	C150.4,227.36,146.82,226.05,145.44,226.06z"/>
</svg>
